<svg id="Capa_1" data-name="Capa 1" xmlns="http://www.w3.org/2000/svg" viewBox="0 0 330 324"><defs><style>.cls-1{opacity:0.5;}.cls-2,.cls-4,.cls-5,.cls-6{fill:none;stroke-width:9px;}.cls-2,.cls-5,.cls-6{stroke:#fff;}.cls-2,.cls-4,.cls-6{stroke-miterlimit:10;}.cls-3{fill:#fff;}.cls-4{stroke:#112142;}.cls-4,.cls-5,.cls-6{stroke-linecap:round;}.cls-5{stroke-linejoin:round;}</style></defs><title>404 error final elementos</title><g class="cls-1"><path class="cls-2" d="M272.64,81.72c9.39,28-38.25,69.15-106.39,92s-131,18.76-140.38-9.19,38.26-69.15,106.41-92S263.26,53.78,272.64,81.72Z"/><path class="cls-3" d="M212.52,76.82C225.91,116.73,81.19,165.3,67.8,125.39A76.33,76.33,0,1,1,212.52,76.82Z"/><path class="cls-4" d="M149.57,76.75a16.67,16.67,0,1,1-21.11-10.49A16.69,16.69,0,0,1,149.57,76.75Z"/><path class="cls-5" d="M107.29,188.6,67.4,267.89s157.3,104,234.47-78.7l-77.15-38.38"/><line class="cls-6" x1="138.55" y1="184.4" x2="127.59" y2="292.75"/><line class="cls-6" x1="196.76" y1="164.86" x2="276.58" y2="235.74"/><line class="cls-6" x1="165.49" y1="175.87" x2="203.16" y2="288.12"/></g></svg>