<svg id="Capa_1" data-name="Capa 1" xmlns="http://www.w3.org/2000/svg" viewBox="0 0 330 324"><defs><style>.cls-1{opacity:0.5;}.cls-2{fill:#fff;}.cls-3{fill:none;stroke:#fff;stroke-linecap:round;stroke-miterlimit:10;stroke-width:9px;}</style></defs><title>404 error final elementos</title><g class="cls-1"><circle class="cls-2" cx="85.06" cy="69.53" r="14.49"/><path class="cls-2" d="M241.74,284.62a5.73,5.73,0,1,1-4.62-6.66A5.73,5.73,0,0,1,241.74,284.62Z"/><path class="cls-3" d="M143,214.6a66.21,66.21,0,1,1-78.54-51A66.21,66.21,0,0,1,143,214.6Z"/><line class="cls-3" x1="48.4" y1="169.58" x2="209.34" y2="19.64"/><line class="cls-3" x1="123.28" y1="277.42" x2="320" y2="179"/><line class="cls-3" x1="155.3" y1="174.71" x2="289.59" y2="76.35"/><path class="cls-2" d="M91.29,284.2c-7.3-17-15.57-33.48-26.26-48.65-5.53-7.86-12.61-14.38-19.26-21.26-5.76-6-14.34-9.78-19.68-15.74-3.48-3.89-9.9-.44-8.9,4.56,1.09,5.43,4.93,7.34,8.91,10.95,6.79,6.16,12.27,13.86,17.93,21,13,16.49,22.55,35.69,28.81,55.72C77.14,304.56,97,297.42,91.29,284.2Z"/><path class="cls-2" d="M139.19,234.73c-8.15,1.08-31.9-11.89-40.38-17a109.41,109.41,0,0,1-26.08-22.49c-5-5.74-13.43-15-14.45-23.13-1.18-9.25-16.68-5.15-12.65,4.54,9.3,22.4,31,40.72,51.74,51.86,4.46,2.4,43.38,21.17,45.23,9.16C142.9,235.71,140.85,234.51,139.19,234.73Z"/></g></svg>