<svg id="Capa_1" data-name="Capa 1" xmlns="http://www.w3.org/2000/svg" viewBox="0 0 330 324"><defs><style>.cls-1{opacity:0.5;}.cls-2{fill:#fff;}</style></defs><title>404 error final elementos</title><g class="cls-1"><path class="cls-2" d="M293.4,183.62A186.85,186.85,0,0,1,203.48,36.75L201.57,9.66l-14,23.26A186.9,186.9,0,0,1,40.67,122.84l-27.08,1.91,23.25,14a186.87,186.87,0,0,1,89.92,146.88l1.91,27.08,14-23.25a186.87,186.87,0,0,1,146.88-89.92l27.08-1.92Zm-57.34-.56a106.51,106.51,0,0,0-83.72,51.26l-8,13.25-1.09-15.44A106.57,106.57,0,0,0,92,148.41l-13.25-8,15.44-1.09A106.5,106.5,0,0,0,177.9,88.08l8-13.26L187,90.26A106.5,106.5,0,0,0,238.24,174l13.26,8Z"/><path class="cls-2" d="M295.5,52.18l2.44-4,.34,4.72A32.55,32.55,0,0,0,314,78.45L318,80.89l-4.72.34a32.55,32.55,0,0,0-25.6,15.67l-2.44,4-.34-4.72a32.57,32.57,0,0,0-15.67-25.6l-4.05-2.44,4.72-.34A32.55,32.55,0,0,0,295.5,52.18Z"/><path class="cls-2" d="M300.66,123l1.13-1.89.16,2.2a15.17,15.17,0,0,0,7.29,11.91l1.89,1.13-2.2.16A15.17,15.17,0,0,0,297,143.82l-1.14,1.88-.15-2.19a15.17,15.17,0,0,0-7.29-11.91l-1.89-1.14,2.2-.15A15.17,15.17,0,0,0,300.66,123Z"/><path class="cls-2" d="M66.32,223.29l1.14-1.88.15,2.19a15.17,15.17,0,0,0,7.29,11.91l1.89,1.14-2.2.15a15.17,15.17,0,0,0-11.91,7.29L61.55,246l-.16-2.2a15.17,15.17,0,0,0-7.29-11.91l-1.88-1.13,2.19-.16A15.15,15.15,0,0,0,66.32,223.29Z"/></g></svg>