<svg id="Capa_1" data-name="Capa 1" xmlns="http://www.w3.org/2000/svg" viewBox="0 0 330 324"><defs><style>.cls-1{opacity:0.5;}.cls-2,.cls-3{fill:none;stroke:#fff;stroke-miterlimit:10;}.cls-2{stroke-width:9px;}.cls-3{stroke-width:4px;}</style></defs><title>404 error final elementos</title><g class="cls-1"><circle class="cls-2" cx="166.97" cy="163.66" r="100.81" transform="translate(-66.82 166) rotate(-45)"/><path class="cls-2" d="M262.82,131.83c43,25.35,46.71,47.73,44.76,55.82-2.78,11.52-14.95,25.78-57.11,28.28-27.48,1.62-62.21-2.22-97.8-10.81s-68.25-21-91.95-35C24.35,148.64,20,130.4,22.81,118.87s15-25.78,57.11-28.27a156.24,156.24,0,0,1,17.91-.32"/><path class="cls-3" d="M303.26,117.7A8.9,8.9,0,1,1,296.69,107,8.92,8.92,0,0,1,303.26,117.7Z"/><path class="cls-3" d="M48.47,196.89a8.91,8.91,0,1,1-6.57-10.75A8.9,8.9,0,0,1,48.47,196.89Z"/></g></svg>