<svg id="Capa_1" data-name="Capa 1" xmlns="http://www.w3.org/2000/svg" viewBox="0 0 330 324"><defs><style>.cls-1{opacity:0.5;}.cls-2{fill:#fff;}.cls-3{fill:none;stroke:#fff;stroke-linecap:round;stroke-linejoin:round;stroke-width:9px;}</style></defs><title>404 error final elementos</title><g class="cls-1"><path class="cls-2" d="M268.61,273.4a28,28,0,1,1-28-28A28,28,0,0,1,268.61,273.4Z"/><circle class="cls-2" cx="50.52" cy="134.03" r="10.69"/><circle class="cls-2" cx="44.19" cy="301.91" r="10.69"/><path class="cls-2" d="M206.64,26.34A16.75,16.75,0,1,1,189.89,9.6,16.74,16.74,0,0,1,206.64,26.34Z"/><path class="cls-3" d="M320.77,130.73A170.43,170.43,0,0,1,150.35,301.16,136.34,136.34,0,0,1,14,164.81,109.08,109.08,0,0,1,123.08,55.74,87.26,87.26,0,0,1,210.33,143a69.81,69.81,0,0,1-69.8,69.81A55.85,55.85,0,0,1,84.68,157a44.68,44.68,0,0,1,44.68-44.68A35.74,35.74,0,0,1,165.1,148a28.59,28.59,0,0,1-28.59,28.6,22.88,22.88,0,0,1-22.88-22.88"/></g></svg>