<svg id="Capa_1" data-name="Capa 1" xmlns="http://www.w3.org/2000/svg" viewBox="0 0 330 324"><defs><style>.cls-1{opacity:0.5;}.cls-2{fill:none;stroke:#fff;stroke-miterlimit:10;stroke-width:8px;}.cls-3{fill:#fff;}</style></defs><title>404 error final elementos</title><g class="cls-1"><circle class="cls-2" cx="165.92" cy="161.84" r="116.37"/><path class="cls-2" d="M165.92,312.92c-83.3,0-151.08-67.78-151.08-151.08S82.62,10.76,165.92,10.76,317,78.53,317,161.84,249.22,312.92,165.92,312.92Z"/><path class="cls-2" d="M246.27,161.84c0,5.8-9.64,10.44-10.87,15.86-1.27,5.6,5.36,14,2.93,19s-13.17,5.14-16.7,9.55-1.18,14.86-5.61,18.4-14-1.09-19.18,1.39-7.44,12.86-13,14.14c-5.43,1.23-12.08-7.1-17.88-7.1s-12.45,8.33-17.88,7.1c-5.6-1.28-8-11.7-13-14.14s-14.77,2.13-19.18-1.39-2.07-14-5.61-18.4-14.22-4.41-16.7-9.55,4.2-13.41,2.93-19c-1.23-5.42-10.87-10.06-10.87-15.86S95.21,151.4,96.44,146c1.27-5.6-5.36-13.95-2.93-19s13.17-5.14,16.7-9.56,1.18-14.85,5.61-18.39,14,1.08,19.18-1.4,7.44-12.86,13-14.13c5.43-1.24,12.08,7.1,17.88,7.1s12.45-8.34,17.88-7.1c5.6,1.27,8,11.7,13,14.13S211.61,95.49,216,99s2.07,14,5.61,18.39,14.22,4.42,16.7,9.56-4.2,13.4-2.93,19C236.63,151.4,246.27,156,246.27,161.84Z"/><path class="cls-3" d="M78.39,46.23A14.32,14.32,0,1,1,64.07,31.91,14.31,14.31,0,0,1,78.39,46.23Z"/><path class="cls-3" d="M242.16,260.93a18.44,18.44,0,1,1-18.43-18.43A18.44,18.44,0,0,1,242.16,260.93Z"/></g></svg>