<svg id="Capa_1" data-name="Capa 1" xmlns="http://www.w3.org/2000/svg" viewBox="0 0 330 324"><defs><style>.cls-1{opacity:0.5;}.cls-2{fill:#fff;}</style></defs><title>404 error final elementos</title><g class="cls-1"><path class="cls-2" d="M282.33,155.11A170.92,170.92,0,0,1,171,43.75l-7.49-23.67L156,43.75A170.92,170.92,0,0,1,44.63,155.11L21,162.6l23.67,7.49A170.92,170.92,0,0,1,156,281.45l7.49,23.67L171,281.45A170.92,170.92,0,0,1,282.33,170.09L306,162.6Zm-51.11,11.76a97.44,97.44,0,0,0-63.47,63.47l-4.27,13.5-4.27-13.5a97.44,97.44,0,0,0-63.47-63.47l-13.5-4.27,13.5-4.27a97.44,97.44,0,0,0,63.47-63.47l4.27-13.5,4.27,13.5a97.44,97.44,0,0,0,63.47,63.47l13.5,4.27Z"/><path class="cls-2" d="M256.08,37.8l1.31-4.13,1.31,4.13a29.75,29.75,0,0,0,19.4,19.4l4.13,1.31-4.13,1.31a29.75,29.75,0,0,0-19.4,19.4l-1.31,4.13-1.31-4.13a29.75,29.75,0,0,0-19.4-19.4l-4.13-1.31,4.13-1.31A29.75,29.75,0,0,0,256.08,37.8Z"/><path class="cls-2" d="M275.82,99.67l.61-1.92.6,1.92a13.87,13.87,0,0,0,9,9l1.92.61-1.92.61a13.86,13.86,0,0,0-9,9l-.6,1.92-.61-1.92a13.84,13.84,0,0,0-9-9l-1.92-.61,1.92-.61A13.85,13.85,0,0,0,275.82,99.67Z"/><path class="cls-2" d="M88.91,238.93l.61-1.91.61,1.91a13.85,13.85,0,0,0,9,9l1.92.61-1.92.61a13.85,13.85,0,0,0-9,9l-.61,1.91-.61-1.91a13.84,13.84,0,0,0-9-9L78,248.57l1.92-.61A13.84,13.84,0,0,0,88.91,238.93Z"/></g></svg>