<svg id="Capa_1" data-name="Capa 1" xmlns="http://www.w3.org/2000/svg" viewBox="0 0 330 324"><defs><style>.cls-1{opacity:0.5;}.cls-2{fill:#fff;}</style></defs><title>404 error final elementos</title><g class="cls-1"><path class="cls-2" d="M14.93,197.64,42,199.56a186.85,186.85,0,0,1,146.87,89.92l14,23.25,1.92-27.08a186.87,186.87,0,0,1,89.92-146.88l23.25-14-27.09-1.91A186.89,186.89,0,0,1,144,32.92L130,9.66l-1.91,27.09A186.88,186.88,0,0,1,38.19,183.62ZM80.09,182l13.26-8A106.5,106.5,0,0,0,144.6,90.26l1.09-15.44,8,13.26a106.52,106.52,0,0,0,83.72,51.25l15.44,1.09-13.25,8a106.52,106.52,0,0,0-51.26,83.72l-1.09,15.44-8-13.25a106.51,106.51,0,0,0-83.72-51.26Z"/><path class="cls-2" d="M36.09,52.18l-2.45-4-.33,4.72a32.58,32.58,0,0,1-15.67,25.6l-4.05,2.44,4.72.34A32.57,32.57,0,0,1,43.91,96.9l2.44,4,.33-4.72a32.62,32.62,0,0,1,15.67-25.6l4.06-2.44-4.72-.34A32.54,32.54,0,0,1,36.09,52.18Z"/><path class="cls-2" d="M30.93,123l-1.14-1.89-.15,2.2a15.17,15.17,0,0,1-7.29,11.91l-1.89,1.13,2.2.16a15.17,15.17,0,0,1,11.91,7.29l1.13,1.88.16-2.19a15.12,15.12,0,0,1,7.29-11.91L45,130.46l-2.19-.15A15.17,15.17,0,0,1,30.93,123Z"/><path class="cls-2" d="M265.27,223.29l-1.14-1.88L264,223.6a15.17,15.17,0,0,1-7.29,11.91l-1.89,1.14,2.2.15a15.14,15.14,0,0,1,11.9,7.29L270,246l.16-2.2a15.12,15.12,0,0,1,7.29-11.91l1.88-1.13-2.19-.16A15.13,15.13,0,0,1,265.27,223.29Z"/></g></svg>