<svg xmlns="http://www.w3.org/2000/svg" xmlns:xlink="http://www.w3.org/1999/xlink" viewBox="0 0 200 200"><defs><style>.cls-1{isolation:isolate;}.cls-2,.cls-3,.cls-4,.cls-5{fill:#fff;}.cls-2{opacity:0.5;}.cls-3{opacity:0.3;}.cls-4{opacity:0.1;}.cls-6{fill:url(#Degradado_sin_nombre_90);}.cls-7{fill:url(#Degradado_sin_nombre_127);}.cls-15,.cls-16,.cls-17,.cls-18,.cls-19,.cls-20,.cls-21,.cls-8{mix-blend-mode:multiply;}.cls-8{fill:url(#Degradado_sin_nombre_123);}.cls-9{fill:url(#Degradado_sin_nombre_123-2);}.cls-10{fill:url(#radial-gradient);}.cls-11{fill:url(#radial-gradient-2);}.cls-12{fill:url(#radial-gradient-3);}.cls-13{fill:url(#radial-gradient-4);}.cls-14{fill:url(#radial-gradient-5);}.cls-15{fill:url(#Degradado_sin_nombre_129);}.cls-16{fill:url(#radial-gradient-6);}.cls-17{fill:url(#radial-gradient-7);}.cls-18{fill:url(#radial-gradient-8);}.cls-19{fill:url(#radial-gradient-9);}.cls-20{fill:url(#radial-gradient-10);}.cls-21{fill:url(#radial-gradient-11);}.cls-22{fill:#1b1464;}.cls-23{fill:#f5911e;}.cls-24{stroke:#1b1464;stroke-linejoin:round;fill:url(#Degradado_sin_nombre_131);}.cls-25{fill:#e4e4e4;}.cls-26{fill:#f0f0f0;stroke:#b1b1b1;stroke-miterlimit:10;opacity:0.2;}</style><linearGradient id="Degradado_sin_nombre_90" x1="97.43" y1="175.6" x2="109.24" y2="102.56" gradientUnits="userSpaceOnUse"><stop offset="0" stop-color="#eb1c24" stop-opacity="0"/><stop offset="0.09" stop-color="#eb1f24" stop-opacity="0.04"/><stop offset="0.24" stop-color="#ec2624" stop-opacity="0.16"/><stop offset="0.44" stop-color="#ec3124" stop-opacity="0.34"/><stop offset="0.68" stop-color="#ed4124" stop-opacity="0.6"/><stop offset="0.94" stop-color="#ef5524" stop-opacity="0.93"/><stop offset="1" stop-color="#ef5a24"/></linearGradient><radialGradient id="Degradado_sin_nombre_127" cx="113.34" cy="98.06" r="82.82" gradientTransform="matrix(0, 1, -0.37, 0, 148.79, -33.76)" gradientUnits="userSpaceOnUse"><stop offset="0" stop-color="#ffe045"/><stop offset="1" stop-color="#8ac43f"/></radialGradient><linearGradient id="Degradado_sin_nombre_123" x1="110.37" y1="33.34" x2="110.37" y2="188.74" gradientTransform="translate(15.36 -34.59) rotate(8.76)" gradientUnits="userSpaceOnUse"><stop offset="0.81" stop-color="#006837"/><stop offset="0.94" stop-color="#39b34a"/></linearGradient><linearGradient id="Degradado_sin_nombre_123-2" x1="76.53" y1="213.88" x2="109.35" y2="99.88" gradientTransform="matrix(1, 0, 0, 1, 0, 0)" xlink:href="#Degradado_sin_nombre_123"/><radialGradient id="radial-gradient" cx="55.63" cy="104.81" r="3.12" gradientTransform="translate(15.36 -34.59) rotate(8.76)" gradientUnits="userSpaceOnUse"><stop offset="0.02" stop-color="#732fa2"/><stop offset="0.35" stop-color="#702d9f"/><stop offset="0.63" stop-color="#672695"/><stop offset="0.88" stop-color="#581c84"/><stop offset="1" stop-color="#4f1579"/><stop offset="1" stop-color="#51167b"/></radialGradient><radialGradient id="radial-gradient-2" cx="114" cy="116.13" r="3.12" xlink:href="#radial-gradient"/><radialGradient id="radial-gradient-3" cx="169.76" cy="104.81" r="3.12" xlink:href="#radial-gradient"/><radialGradient id="radial-gradient-4" cx="49.73" cy="81.72" r="2.55" xlink:href="#radial-gradient"/><radialGradient id="radial-gradient-5" cx="177.08" cy="81.72" r="2.55" xlink:href="#radial-gradient"/><linearGradient id="Degradado_sin_nombre_129" x1="113.34" y1="144.19" x2="113.34" y2="57.95" gradientTransform="translate(200.17 -45.82) rotate(90)" gradientUnits="userSpaceOnUse"><stop offset="0.62" stop-color="#39b34a"/><stop offset="0.81" stop-color="#006837"/></linearGradient><radialGradient id="radial-gradient-6" cx="51.64" cy="68.03" r="14.99" gradientUnits="userSpaceOnUse"><stop offset="0.08" stop-color="#ffe045"/><stop offset="1" stop-color="#61e127"/></radialGradient><radialGradient id="radial-gradient-7" cx="79.88" cy="87.14" r="11.97" xlink:href="#radial-gradient-6"/><radialGradient id="radial-gradient-8" cx="140.83" cy="96.66" r="11.76" xlink:href="#radial-gradient-6"/><radialGradient id="radial-gradient-9" cx="93.44" cy="50.91" r="4.2" xlink:href="#radial-gradient-6"/><radialGradient id="radial-gradient-10" cx="135.9" cy="56.59" r="3.93" xlink:href="#radial-gradient-6"/><radialGradient id="radial-gradient-11" cx="173.75" cy="87.14" r="15.14" xlink:href="#radial-gradient-6"/><linearGradient id="Degradado_sin_nombre_131" x1="85.27" y1="62.46" x2="126.02" y2="62.46" gradientUnits="userSpaceOnUse"><stop offset="0" stop-color="#cfdfec"/><stop offset="0.34" stop-color="#8cdfec"/><stop offset="0.94" stop-color="#2e3190"/></linearGradient></defs><title>FINAL ELEMENTOS</title><g class="cls-1"><g id="Capa_1" data-name="Capa 1"><path class="cls-2" d="M101.94,15.57a81.48,81.48,0,1,0,81.48,81.48A81.48,81.48,0,0,0,101.94,15.57Zm0,160.13a78.65,78.65,0,1,1,78.65-78.65A78.65,78.65,0,0,1,101.94,175.7Z"/><path class="cls-3" d="M94.3,20.25a81.48,81.48,0,1,0,81.47,81.47A81.47,81.47,0,0,0,94.3,20.25Zm0,160.13A78.66,78.66,0,1,1,173,101.72,78.66,78.66,0,0,1,94.3,180.38Z"/><path class="cls-4" d="M87.1,25a81.48,81.48,0,1,0,81.48,81.48A81.48,81.48,0,0,0,87.1,25Zm0,160.13a78.65,78.65,0,1,1,78.65-78.65A78.65,78.65,0,0,1,87.1,185.17Z"/><path class="cls-5" d="M110.9,12a81.48,81.48,0,1,0,81.48,81.48A81.47,81.47,0,0,0,110.9,12Zm0,160.13a78.65,78.65,0,1,1,78.65-78.65A78.65,78.65,0,0,1,110.9,172.13Z"/><path class="cls-6" d="M123.82,171.06,121,126.13a116.19,116.19,0,0,1-15.46-1.34,118.06,118.06,0,0,1-16.22-3.69L73.83,162.85a78.26,78.26,0,0,0,37.07,9.28A79.78,79.78,0,0,0,123.82,171.06Z"/><ellipse class="cls-7" cx="112.45" cy="79.58" rx="30.06" ry="82.76" transform="translate(16.67 178.61) rotate(-81.24)"/><path class="cls-8" d="M109.63,106.47C72.08,100.69,41.47,87.4,31.69,74,38,88.44,69,103.3,107.88,109.29c32.57,5,61.76,2.44,76.46-5.55C167.89,109.76,140.21,111.19,109.63,106.47Z"/><path class="cls-9" d="M107.88,109.29C84.53,105.69,64,98.89,50,90.9c3.73,15.06,26.4,29.4,55.5,33.89s55-2.38,63.13-15.61C152.83,112.58,131.22,112.89,107.88,109.29Z"/><path class="cls-10" d="M54.75,75.1A3.6,3.6,0,0,0,50.56,78a.88.88,0,0,0,0,.17.76.76,0,0,0,0,.15c.08.57,1.58,1.24,3.49,1.54s3.54.1,3.8-.42l0-.15,0-.17A3.59,3.59,0,0,0,54.75,75.1Z"/><path class="cls-11" d="M110.71,95.18a3.6,3.6,0,0,0-4.19,2.88s0,.11,0,.17a.76.76,0,0,0,0,.15c.09.58,1.59,1.24,3.49,1.54s3.54.11,3.8-.41c0-.05,0-.1,0-.15l0-.17A3.61,3.61,0,0,0,110.71,95.18Z"/><path class="cls-12" d="M167.54,92.48a3.6,3.6,0,0,0-4.19,2.88s0,.11,0,.17a.76.76,0,0,0,0,.15c.09.57,1.59,1.24,3.49,1.54s3.54.1,3.8-.42a.83.83,0,0,1,0-.15l0-.17A3.6,3.6,0,0,0,167.54,92.48Z"/><path class="cls-13" d="M52.37,51.81a3,3,0,0,0-3.43,2.36s0,.09,0,.14,0,.08,0,.12c.07.47,1.3,1,2.86,1.26s2.9.09,3.11-.34l0-.12s0-.09,0-.14A3,3,0,0,0,52.37,51.81Z"/><path class="cls-14" d="M178.23,71.21a2.94,2.94,0,0,0-3.43,2.35.68.68,0,0,1,0,.14v.13c.07.47,1.3,1,2.86,1.25s2.89.09,3.1-.33l0-.13,0-.13A2.94,2.94,0,0,0,178.23,71.21Z"/><ellipse class="cls-15" cx="114.31" cy="67.53" rx="12.63" ry="43.12" transform="translate(30.16 170.22) rotate(-81.24)"/><path class="cls-16" d="M71.67,61.25c-21.86,1.57-33.88,7.6-40.11,12.38.16.4.34.79.54,1.19,12-9.39,33.11-11.93,39.62-12.51A3.79,3.79,0,0,1,71.67,61.25Z"/><path class="cls-17" d="M89.62,74.47c-3.84,2-13.43,8.42-21,24.93l1.1.4c2.31-4.9,9.74-19,21.38-24.81Z"/><path class="cls-18" d="M135.41,81.59l-1.59,0c9.33,9.12,12.15,24.83,12.86,30.11l1.16,0C145.65,93.75,138.51,84.74,135.41,81.59Z"/><path class="cls-19" d="M97.32,54.46l.88-.76A72.38,72.38,0,0,0,91,47.41l-2.28-.06A74.39,74.39,0,0,1,97.32,54.46Z"/><path class="cls-20" d="M138.78,54.33a74.14,74.14,0,0,0-8,3.51c.2.33.41.66.61,1A74.07,74.07,0,0,1,141,54.92Z"/><path class="cls-21" d="M156.54,75.28a4.88,4.88,0,0,1-.62.91c6.67,2.52,26,10.6,34.81,22.81.3-.32.58-.65.85-1C187,91.83,177.25,82.7,156.54,75.28Z"/><path class="cls-22" d="M95.17,32.78l.17.28c1.87-.86,9.9-3.35,14.48,14.07l.8-.09S106.12,28.14,95.17,32.78Z"/><path class="cls-23" d="M95.56,33.56c.61,1.56.32,3.12-.64,3.49s-2.22-.59-2.82-2.14-.32-3.12.63-3.49c.77-.3,1.73.25,2.39,1.27A4.43,4.43,0,0,1,95.56,33.56Z"/><path class="cls-22" d="M141.65,39.94l-.24.22c-1.53-1.38-8.44-6.18-18,9.05l-.73-.32S132.61,32.22,141.65,39.94Z"/><path class="cls-23" d="M141.05,40.57c-1.05,1.3-1.25,2.88-.45,3.52s2.3.11,3.34-1.19,1.25-2.88.45-3.52c-.64-.52-1.72-.28-2.66.49A4.53,4.53,0,0,0,141.05,40.57Z"/><path class="cls-24" d="M122.65,48.42l.31-.06s-2.34-4.1-6.23-4.83a8.8,8.8,0,0,0-6.87,1.91,4.82,4.82,0,0,1,4.46-.47s-4.79,0-6.18,2.46c-6.26,3.15-10,11.14-11.55,20.83a36,36,0,0,0-.32,8.3A136.26,136.26,0,0,0,112.39,80a138.5,138.5,0,0,0,15,1.51,35.81,35.81,0,0,0,2.26-8.17C131.28,62.52,129.09,52.77,122.65,48.42Z"/><ellipse class="cls-25" cx="102.47" cy="57.14" rx="8.35" ry="5.87" transform="translate(30.39 149.71) rotate(-81.24)"/><ellipse class="cls-25" cx="127.35" cy="61.04" rx="8.35" ry="5.87" transform="translate(47.63 177.61) rotate(-81.24)"/><ellipse class="cls-23" cx="102.39" cy="57.63" rx="4.22" ry="2.61" transform="translate(29.84 150.05) rotate(-81.24)"/><ellipse class="cls-5" cx="102.39" cy="57.63" rx="1.13" ry="0.7" transform="translate(29.84 150.05) rotate(-81.24)"/><ellipse class="cls-5" cx="103.51" cy="54.99" rx="1.24" ry="0.77" transform="translate(33.4 148.92) rotate(-81.24)"/><ellipse class="cls-23" cx="128.1" cy="61.6" rx="4.22" ry="2.61" transform="translate(47.72 178.83) rotate(-81.24)"/><ellipse class="cls-5" cx="128.1" cy="61.6" rx="1.13" ry="0.7" transform="translate(47.72 178.83) rotate(-81.24)"/><ellipse class="cls-5" cx="129.22" cy="58.95" rx="1.24" ry="0.77" transform="translate(51.28 177.69) rotate(-81.24)"/><path class="cls-23" d="M108.66,64.76c.92-.87,5.87-5,9.7,1.52a1.18,1.18,0,0,0,.38.39,4.39,4.39,0,0,0,1.93.5c1.7.14,6,3.12,1.14,4.9a1.9,1.9,0,0,0-1.33,1.29,9.49,9.49,0,0,0-.22,1.48A3.14,3.14,0,0,1,118,77.65c-2.83.79-7.65,1.41-11.59-1.75a3.17,3.17,0,0,1-1.08-3.15,12.51,12.51,0,0,0,.28-1.88,1.7,1.7,0,0,0-.7-1.45c-1.46-1-3.47-3.56-.13-4.32a5.5,5.5,0,0,1,1.94-.07,4.7,4.7,0,0,0,1.45,0A1.06,1.06,0,0,0,108.66,64.76Z"/><path class="cls-26" d="M120.88,24.91C97.34,21.28,75.5,36.27,72.09,58.38c-.1.66-.18,1.32-.25,2s-.1,1.2-.14,1.8c1,6.66,18.5,14.43,40.69,17.85s41.17,1.26,44.17-4.77c.15-.59.29-1.17.41-1.77s.26-1.3.36-2C160.74,49.4,144.42,28.54,120.88,24.91Z"/></g></g></svg>