<svg xmlns="http://www.w3.org/2000/svg" xmlns:xlink="http://www.w3.org/1999/xlink" viewBox="0 0 200 200"><defs><style>.cls-1{isolation:isolate;}.cls-2{fill:#fff;}.cls-3{fill:url(#Degradado_sin_nombre_127);}.cls-4{fill:url(#Degradado_sin_nombre_5);}.cls-5{fill:#8ac43f;}.cls-12,.cls-13,.cls-14,.cls-17,.cls-20,.cls-28,.cls-29,.cls-31,.cls-5,.cls-7,.cls-8,.cls-9{mix-blend-mode:multiply;}.cls-6{fill:url(#Degradado_sin_nombre_127-2);}.cls-7{fill:url(#Degradado_sin_nombre_6);}.cls-8{fill:url(#Degradado_sin_nombre_11);}.cls-9{fill:url(#Degradado_sin_nombre_10);}.cls-10{fill:#bfeeff;}.cls-11{fill:#87daf1;}.cls-12{fill:url(#Degradado_sin_nombre_123);}.cls-13{fill:url(#Degradado_sin_nombre_123-2);}.cls-14{fill:url(#Degradado_sin_nombre_123-3);}.cls-15{fill:url(#Degradado_sin_nombre_127-3);}.cls-16{fill:#0e1c30;}.cls-17{fill:url(#Degradado_sin_nombre_7);}.cls-18{fill:#060530;}.cls-19{fill:url(#radial-gradient);}.cls-20,.cls-28,.cls-31{opacity:0.5;}.cls-21{fill:url(#radial-gradient-2);}.cls-22{fill:url(#radial-gradient-3);}.cls-23{fill:url(#radial-gradient-4);}.cls-24{fill:url(#radial-gradient-5);}.cls-25{fill:url(#radial-gradient-6);}.cls-26{fill:url(#radial-gradient-7);}.cls-27{fill:url(#radial-gradient-8);}.cls-28{fill:url(#radial-gradient-9);}.cls-29{fill:url(#Degradado_sin_nombre_123-4);}.cls-30{fill:url(#radial-gradient-10);}.cls-31{fill:url(#radial-gradient-11);}</style><radialGradient id="Degradado_sin_nombre_127" cx="51.76" cy="116.47" r="10.5" gradientUnits="userSpaceOnUse"><stop offset="0" stop-color="#ffe045"/><stop offset="1" stop-color="#8ac43f"/></radialGradient><radialGradient id="Degradado_sin_nombre_5" cx="37.7" cy="83.42" fx="20.718501790296035" r="22.32" gradientTransform="matrix(-1, 0.09, -0.06, -0.65, 80.04, 134.13)" gradientUnits="userSpaceOnUse"><stop offset="0" stop-color="#ffe045"/><stop offset="1" stop-color="#8ac43f"/></radialGradient><radialGradient id="Degradado_sin_nombre_127-2" cx="108.22" cy="101.83" r="14.48" xlink:href="#Degradado_sin_nombre_127"/><linearGradient id="Degradado_sin_nombre_6" x1="48.93" y1="83.03" x2="54.43" y2="83.03" gradientUnits="userSpaceOnUse"><stop offset="0" stop-color="#006837"/><stop offset="0.94" stop-color="#39b34a"/></linearGradient><linearGradient id="Degradado_sin_nombre_11" x1="58.69" y1="116.23" x2="61.29" y2="116.23" xlink:href="#Degradado_sin_nombre_6"/><linearGradient id="Degradado_sin_nombre_10" x1="95.64" y1="101.48" x2="98.86" y2="101.48" xlink:href="#Degradado_sin_nombre_6"/><linearGradient id="Degradado_sin_nombre_123" x1="20.08" y1="83.01" x2="34.45" y2="83.01" gradientUnits="userSpaceOnUse"><stop offset="0.81" stop-color="#006837"/><stop offset="0.94" stop-color="#39b34a"/></linearGradient><linearGradient id="Degradado_sin_nombre_123-2" x1="40.69" y1="116.67" x2="49.34" y2="116.67" xlink:href="#Degradado_sin_nombre_123"/><linearGradient id="Degradado_sin_nombre_123-3" x1="-439.23" y1="101.35" x2="-428.1" y2="101.35" gradientTransform="matrix(-1, 0, 0, 1, -316.5, 0)" xlink:href="#Degradado_sin_nombre_123"/><radialGradient id="Degradado_sin_nombre_127-3" cx="75.9" cy="52.89" fx="105.12473166576436" r="29.63" gradientTransform="translate(0 19.36) scale(1 0.63)" xlink:href="#Degradado_sin_nombre_127"/><linearGradient id="Degradado_sin_nombre_7" x1="87.43" y1="52.58" x2="96.95" y2="52.58" xlink:href="#Degradado_sin_nombre_6"/><radialGradient id="radial-gradient" cx="91.73" cy="108.75" r="83.3" gradientUnits="userSpaceOnUse"><stop offset="0.02" stop-color="#732fa2"/><stop offset="0.35" stop-color="#702d9f"/><stop offset="0.63" stop-color="#672695"/><stop offset="0.88" stop-color="#581c84"/><stop offset="1" stop-color="#4f1579"/><stop offset="1" stop-color="#51167b"/></radialGradient><radialGradient id="radial-gradient-2" cx="115.28" cy="93.69" r="60.04" xlink:href="#radial-gradient"/><radialGradient id="radial-gradient-3" cx="45.11" cy="181.08" r="3.83" xlink:href="#radial-gradient"/><radialGradient id="radial-gradient-4" cx="173.05" cy="99.81" r="39.13" xlink:href="#radial-gradient"/><radialGradient id="radial-gradient-5" cx="66.5" cy="185.93" r="0.68" xlink:href="#radial-gradient"/><radialGradient id="radial-gradient-6" cx="109.23" cy="184.45" r="0.68" xlink:href="#radial-gradient"/><radialGradient id="radial-gradient-7" cx="47.68" cy="160.89" r="35.01" xlink:href="#radial-gradient"/><radialGradient id="radial-gradient-8" cx="23.93" cy="180.78" r="3.37" xlink:href="#radial-gradient"/><radialGradient id="radial-gradient-9" cx="136.83" cy="106.03" r="49.67" xlink:href="#radial-gradient"/><linearGradient id="Degradado_sin_nombre_123-4" x1="55.57" y1="54.47" x2="72.87" y2="54.47" xlink:href="#Degradado_sin_nombre_123"/><radialGradient id="radial-gradient-10" cx="107.72" cy="12.75" r="33.55" gradientTransform="translate(48.06 -74.03) rotate(45)" gradientUnits="userSpaceOnUse"><stop offset="0" stop-color="#cfdfec"/><stop offset="0.34" stop-color="#8cdfec"/><stop offset="0.94" stop-color="#5e8bea"/></radialGradient><radialGradient id="radial-gradient-11" cx="123.41" cy="21.23" r="64.18" gradientUnits="userSpaceOnUse"><stop offset="0" stop-color="#8cdfec"/><stop offset="0.94" stop-color="#5e8bea"/></radialGradient></defs><title>FINAL ELEMENTOS</title><g class="cls-1"><g id="Capa_1" data-name="Capa 1"><path class="cls-2" d="M107.72,18.23A88.78,88.78,0,1,0,196.5,107,88.78,88.78,0,0,0,107.72,18.23Zm0,174.48a85.7,85.7,0,1,1,85.7-85.7A85.7,85.7,0,0,1,107.72,192.71Z"/><ellipse class="cls-3" cx="51.76" cy="116.47" rx="12.46" ry="8.06"/><ellipse class="cls-4" cx="37.7" cy="83.42" rx="20.23" ry="13.09"/><path class="cls-5" d="M37.7,70.34l-.69,0c10.85.24,19.54,6,19.54,13.06S47.86,96.25,37,96.49l.69,0c11.17,0,20.22-5.86,20.22-13.09S48.87,70.34,37.7,70.34Z"/><path class="cls-5" d="M51.76,108.41l-.68,0c6.56.23,11.77,3.74,11.77,8s-5.21,7.81-11.77,8c.22,0,.45,0,.68,0,6.89,0,12.47-3.61,12.47-8.07S58.65,108.41,51.76,108.41Z"/><ellipse class="cls-6" cx="108.22" cy="101.83" rx="16.85" ry="11.64"/><ellipse class="cls-7" cx="51.68" cy="83.03" rx="2.75" ry="6.35"/><ellipse class="cls-8" cx="59.99" cy="116.23" rx="1.3" ry="3.91"/><ellipse class="cls-9" cx="97.25" cy="101.48" rx="1.61" ry="5.64"/><ellipse class="cls-10" cx="33.13" cy="83.01" rx="13.05" ry="8.46"/><path class="cls-11" d="M34.17,91.43a18.77,18.77,0,0,0,4.29-.7l7-10.38a8.59,8.59,0,0,0-2.76-3C41.44,80,36.57,87.69,34.17,91.43Z"/><path class="cls-11" d="M26.59,90.32A18.1,18.1,0,0,0,32,91.43L42,76.82a14.92,14.92,0,0,0-3.53-1.52C38.35,75.44,27.68,88.93,26.59,90.32Z"/><path class="cls-12" d="M22.71,83c0-4.37,5.16-7.93,11.74-8.37-.44,0-.87-.08-1.32-.08-7.21,0-13.05,3.78-13.05,8.45s5.84,8.46,13.05,8.46c.45,0,.88-.06,1.32-.09C27.87,91,22.71,87.39,22.71,83Z"/><ellipse class="cls-10" cx="48.54" cy="116.67" rx="7.86" ry="5.97"/><path class="cls-11" d="M49.17,122.62a10.18,10.18,0,0,0,2.58-.5L56,114.79a6,6,0,0,0-1.67-2.14C53.55,114.53,50.61,120,49.17,122.62Z"/><path class="cls-11" d="M44.6,121.83a9.63,9.63,0,0,0,3.25.79l6-10.32a8.18,8.18,0,0,0-2.13-1.07Z"/><path class="cls-13" d="M42.27,116.67c0-3.09,3.1-5.6,7.07-5.91-.27,0-.53-.06-.8-.06-4.34,0-7.85,2.67-7.85,6s3.51,6,7.85,6c.27,0,.53,0,.8-.06C45.37,122.28,42.27,119.76,42.27,116.67Z"/><ellipse class="cls-10" cx="112.62" cy="101.35" rx="10.11" ry="7.56"/><path class="cls-11" d="M111.82,108.87a12.69,12.69,0,0,1-3.33-.63L103,99a7.47,7.47,0,0,1,2.14-2.72C106.18,98.64,110,105.52,111.82,108.87Z"/><path class="cls-11" d="M117.69,107.88a12.63,12.63,0,0,1-4.18,1l-7.75-13.06a11,11,0,0,1,2.73-1.35C108.58,94.58,116.84,106.64,117.69,107.88Z"/><path class="cls-14" d="M120.69,101.35c0-3.91-4-7.09-9.09-7.48.34,0,.67-.08,1-.08,5.59,0,10.11,3.38,10.11,7.56s-4.52,7.55-10.11,7.55c-.35,0-.68-.05-1-.07C116.7,108.44,120.69,105.26,120.69,101.35Z"/><path class="cls-5" d="M92.74,101.83c0-6.27,7.18-11.36,16.17-11.61-.23,0-.46,0-.69,0-9.31,0-16.85,5.21-16.85,11.64s7.54,11.64,16.85,11.64c.23,0,.46,0,.69,0C99.92,113.19,92.74,108.1,92.74,101.83Z"/><ellipse class="cls-15" cx="75.9" cy="52.89" rx="26.97" ry="17.45"/><path class="cls-5" d="M75.9,35.44l-.69,0c14.58.24,26.28,7.94,26.28,17.43S89.79,70.08,75.21,70.31c.23,0,.46,0,.69,0,14.89,0,27-7.82,27-17.45S90.79,35.44,75.9,35.44Z"/><ellipse class="cls-10" cx="71.29" cy="54.47" rx="15.72" ry="9.52"/><polygon class="cls-16" points="61.62 67.16 55.28 67.16 71.14 70.34 61.62 67.16"/><path class="cls-16" d="M103.54,112.76h-2.48l-7-5.64H86.08l14.1,5.64H96.83a.61.61,0,0,0-.62.61V115a.61.61,0,0,0,.62.61h.87l-3.21,4.14L78.36,108.18a3.17,3.17,0,0,0-2-2.71V95.55a4.74,4.74,0,0,0,0-9.18V73.51H80a.69.69,0,0,0,.69-.69v-.5L102.87,64H90.18l-9.52,7.14V71a.68.68,0,0,0-.69-.68H71.83a.68.68,0,0,0-.69.68v1.8a.69.69,0,0,0,.69.69H74V86.37a4.68,4.68,0,0,0-3.32,6.06L54.18,103.54l-3.85-4.65h1.09a.69.69,0,0,0,.69-.69V96.4a.68.68,0,0,0-.69-.68H47.35l16.92-6.35H54.75l-8.46,6.35h-3a.68.68,0,0,0-.69.68v1.8a.69.69,0,0,0,.69.69h4.43l6.19,7.48,1.38-1.14,16.44-11A4.71,4.71,0,0,0,74,95.55v9.92a3.16,3.16,0,0,0,0,5.87v6.82a3.18,3.18,0,0,0-2,2.94,3.24,3.24,0,0,0,.14.88l-10.25,6.89L59.55,126h.71a.38.38,0,0,0,.38-.38v-1.19a.38.38,0,0,0-.38-.38H57.71l10.43-3.91H62.27l-5.21,3.91h-1.9a.38.38,0,0,0-.38.38v1.19a.38.38,0,0,0,.38.38h2.77l3.82,4.62.85-.71,10.15-6.82A3.2,3.2,0,0,0,74,124v32H76.4V124a3.17,3.17,0,0,0,0-5.87v-6.82A3.14,3.14,0,0,0,77.92,110l15.67,11.21,1.13,1,5.16-6.66h3.66a.61.61,0,0,0,.61-.61v-1.6A.61.61,0,0,0,103.54,112.76Z"/><path class="cls-17" d="M88.79,44.33a8.58,8.58,0,0,0-1.36.14,8.23,8.23,0,0,1,0,16.21,7.55,7.55,0,0,0,1.36.14,8.25,8.25,0,0,0,0-16.49Z"/><path class="cls-18" d="M150.8,180.72c-14.68-1.06-38.87-1.75-66.24-1.75C39.79,179,3.5,180.82,3.5,183.1s36.29,4.12,81.06,4.12c21.69,0,41.37-.44,55.92-1.14C140.48,186.08,149.62,182.47,150.8,180.72Z"/><path class="cls-19" d="M174.06,138.36l-7.84-96,5.88-5.88L150.55,30.6l-17.64,7.83-7.83,94s-7.84,15.68-21.56,17.64c0,0-25.47-2-45.06,3.92,0,0,15.67-7.84,33.31-7.84v-7.84s-23.52,0-60.75,25.47c0,0-25.47,15.68-27.43,19.6H7.51l.45,0c6.18-5.32,14.06-9.85,17.19-9.85,2.42,0,0,5-3.42,11.26l3.54.29C31,178.39,41,171.47,44.85,171.47c2.74,0,1.24,6.94-.94,14.85l3.91.16c2.8-6.54,10.28-13,14.66-13,4.11,0,4.2,6.81,4,13.46q4.22,0,8.61,0c2.67-6.67,10.36-13.44,14.84-13.44,4.65,0,11.21,5.92,13.07,12.42q3.12-.19,6.27-.44c-.2-6.74-.14-13.74,4.06-13.74,3.51,0,10.56,5.7,15.18,11.82l.49-.06,7.84,2h5.55a86,86,0,0,0,37.49-32.16C177.27,150.32,175.1,145.67,174.06,138.36Z"/><g class="cls-20"><path class="cls-21" d="M58.46,156.78c19.59-5.87,45.06-3.91,45.06-3.91,13.72-2,21.56-17.64,21.56-17.64l7.83-94,17.64-7.84,19.39,5.29,2.16-2.16L150.55,30.6l-17.64,7.83-7.83,94s-7.84,15.68-21.56,17.64a168.36,168.36,0,0,0-26.39.45A85.75,85.75,0,0,0,58.46,156.78Z"/><path class="cls-22" d="M46.23,175.8a73,73,0,0,1-2.32,10.52l.73,0C45.81,181.82,46.59,177.89,46.23,175.8Z"/><path class="cls-23" d="M166.22,45.1l7.84,96c.91,6.35,2.66,10.68,4.81,13.62.33-.5.68-1,1-1.5-2.6-2.91-4.77-7.56-5.81-14.87l-7.63-93.47Z"/><path class="cls-24" d="M66.52,185c0,.64,0,1.29,0,1.93h.06C66.53,186.24,66.53,185.59,66.52,185Z"/><path class="cls-25" d="M109.2,185.41h.06c0-.64,0-1.28-.05-1.92C109.2,184.12,109.2,184.76,109.2,185.41Z"/><path class="cls-26" d="M31,166.58c37.23-25.47,60.75-25.47,60.75-25.47v-2.75s-23.52,0-60.75,25.47c0,0-25.47,15.68-27.43,19.6H6.23C13.21,177.55,31,166.58,31,166.58Z"/><path class="cls-27" d="M25.75,176.56a58,58,0,0,1-4,8.33l1.42.12C25.43,180.66,26.82,177.32,25.75,176.56Z"/></g><path class="cls-28" d="M134.87,42.35,127,156l11.76,19.59,7.84-139.12Zm3.53,127.36L129,156l6.27-111.94,9.41-5.63Z"/><path class="cls-10" d="M164.26,42.35l3.92-3.92-17.63-5.88-7.84,148.92L151,181a86,86,0,0,0,21.82-18.28Z"/><path class="cls-11" d="M164.26,42.35l3.92-3.92-17.63-5.88-.42,8,14.34,4.79Z"/><polygon class="cls-11" points="167.47 87.31 169.77 119.62 144.38 147.98 146.03 116.98 153.34 115.77 167.47 87.31"/><path class="cls-16" d="M169.29,166.59l-7-122.28,3.92-5.88-5.88,5.88,7.1,124.14C168.07,167.84,168.68,167.22,169.29,166.59Z"/><path class="cls-16" d="M156.43,42.35l3.73,132.42c.64-.49,1.29-1,1.91-1.5L158.39,42.35l3.91-5.88Z"/><path class="cls-16" d="M153.49,41.37l3.92-5.88-5.88,5.88-2,140.1h.56c.47-.27,1-.53,1.41-.81Z"/><path class="cls-11" d="M72.54,64a24,24,0,0,0,5.17-.79L86.2,51.48a9.92,9.92,0,0,0-3.33-3.42C81.3,51.06,75.42,59.73,72.54,64Z"/><path class="cls-11" d="M63.4,62.7A23.66,23.66,0,0,0,69.9,64L82,47.5a19,19,0,0,0-4.25-1.71C77.57,46,64.73,61.14,63.4,62.7Z"/><path class="cls-29" d="M58.74,54.47c0-4.92,6.21-8.93,14.13-9.42-.53,0-1-.09-1.58-.09-8.69,0-15.72,4.26-15.72,9.51S62.6,64,71.29,64c.54,0,1-.06,1.58-.1C65,63.41,58.74,59.4,58.74,54.47Z"/><circle class="cls-30" cx="113.39" cy="21.01" r="16.8" transform="translate(18.36 86.33) rotate(-45)"/><path class="cls-31" d="M120.87,6a14,14,0,1,1-23,10.63,14.57,14.57,0,0,1,.21-2.4A16.8,16.8,0,1,0,120.87,6Z"/></g></g></svg>