<svg id="Capa_1" data-name="Capa 1" xmlns="http://www.w3.org/2000/svg" xmlns:xlink="http://www.w3.org/1999/xlink" viewBox="0 0 200 200"><defs><style>.cls-1{stroke:#006837;stroke-linecap:round;stroke-linejoin:round;fill:url(#Degradado_sin_nombre_22);}.cls-2{fill:url(#Degradado_sin_nombre_95);}.cls-3{fill:url(#Degradado_sin_nombre_21);}.cls-4{fill:#fff;}.cls-5{fill:#12122b;}.cls-6{fill:#f5911e;}.cls-7{fill:#8ac43f;}.cls-8{fill:#006837;}.cls-9{fill:#ef5a24;}.cls-10{fill:#e4e4e4;}</style><linearGradient id="Degradado_sin_nombre_22" x1="56.07" y1="157.45" x2="36.78" y2="182.98" gradientUnits="userSpaceOnUse"><stop offset="0.01" stop-color="#006837"/><stop offset="0.44" stop-color="#39b34a"/></linearGradient><linearGradient id="Degradado_sin_nombre_95" x1="37.32" y1="111.61" x2="180.57" y2="111.61" gradientUnits="userSpaceOnUse"><stop offset="0" stop-color="#8ac43f"/><stop offset="0.2" stop-color="#8ec53f"/><stop offset="0.38" stop-color="#99c840"/><stop offset="0.56" stop-color="#accc41"/><stop offset="0.73" stop-color="#c6d242"/><stop offset="0.9" stop-color="#e7da44"/><stop offset="1" stop-color="#ffe045"/></linearGradient><radialGradient id="Degradado_sin_nombre_21" cx="82.8" cy="120.83" r="61.3" gradientUnits="userSpaceOnUse"><stop offset="0" stop-color="#006837"/><stop offset="1" stop-color="#39b34a"/></radialGradient></defs><title>FINAL ELEMENTOS</title><path class="cls-1" d="M42.05,133.77c-.32,1.84-7.17,47,31.33,43Z"/><path class="cls-2" d="M179.56,148.48a103.48,103.48,0,0,0,1-14.86A59.73,59.73,0,0,0,170,99.75c-2.83,9.68-10.92,16.68-20.46,16.68-11.89,0-18.27-9-18.27-22.41,0-7,5-37-22.05-47.67-2.42-3-11.09-12.73-22.33-15.38.84.23,5,1.71,11.09,9.63,0,0-9.46-9.52-19.57-10.13a17.09,17.09,0,0,1,9.46,8.29s-6.2-7.06-18.6-4A27.82,27.82,0,0,1,85,40s-16.64-5.22-25.12,2.15c0,0,7.5-3.38,18.6,0,0,0-11.42-.31-15.34,4A9,9,0,0,1,70,45.21S63.28,46.4,58.4,50a35.06,35.06,0,0,1,11.69-3c-20,9.84-32.77,35-32.77,63,0,19.23,6.57,36.58,17.1,48.83,2.4,2.8,4.68,5.68,7,8.55,9.51,11.86,28.69,21.48,47.14,25.39A93.15,93.15,0,0,0,179.56,148.48Z"/><path class="cls-3" d="M114.84,192.81c-18.55-3.86-37.9-13.52-47.46-25.45-2.3-2.87-4.59-5.75-7-8.55C49.86,146.56,43.3,129.21,43.3,110,43.3,82,56.05,56.86,76.07,47a37.6,37.6,0,0,0-9.9,2.19c-17.74,11-28.85,34.7-28.85,60.77,0,19.23,6.57,36.58,17.1,48.83,2.4,2.8,4.68,5.68,7,8.55,10.38,12.95,32.29,23.22,52.19,26.31A7.7,7.7,0,0,1,114.84,192.81Z"/><path class="cls-4" d="M100,3.5A96.5,96.5,0,1,0,196.5,100,96.49,96.49,0,0,0,100,3.5Zm0,189.65A93.15,93.15,0,1,1,193.15,100,93.14,93.14,0,0,1,100,193.15Z"/><path class="cls-5" d="M28.09,18.05c.19.2.36.4.53.61C33,15.91,52.14,6.9,70.8,46.31l2-.51S53.7,2.85,28.09,18.05Z"/><path class="cls-6" d="M29.4,19.75c2.15,3.44,2.08,7.25-.18,8.5s-5.82-.53-8-4-2.08-7.24.17-8.49c1.8-1,4.43-.07,6.52,2.09A11.65,11.65,0,0,1,29.4,19.75Z"/><path class="cls-5" d="M147.81,17c-.18.2-.35.41-.52.62C142.88,15,123.56,6.29,105.66,46l-2-.48S121.91,2.27,147.81,17Z"/><path class="cls-6" d="M146.54,18.74c-2.09,3.48-1.94,7.28.34,8.49s5.81-.63,7.9-4.11,1.94-7.28-.33-8.49c-1.82-1-4.43,0-6.48,2.21A11.65,11.65,0,0,0,146.54,18.74Z"/><path class="cls-7" d="M155.54,116.43c7.52,0,14.13-4.35,18-10.93A63.3,63.3,0,0,0,170,99.75c-2.53,8.67-9.3,15.18-17.54,16.44A21.3,21.3,0,0,0,155.54,116.43Z"/><path class="cls-7" d="M82.37,38.37A46.24,46.24,0,0,1,90.94,40a28.52,28.52,0,0,0-3.54-2.12c.17.29.34.58.5.89a11.2,11.2,0,0,0-1.75-1.5,26.89,26.89,0,0,0-10.88-2.49,25.83,25.83,0,0,1,3-.55,23.2,23.2,0,0,0-9,.55A27.46,27.46,0,0,1,82.37,38.37Z"/><path class="cls-7" d="M93.87,38.76a16.16,16.16,0,0,0-2.06-3.13c-3.61-2.41-8.41-4.86-13.37-5.16a16.9,16.9,0,0,1,6.1,3.79A16.46,16.46,0,0,1,93.87,38.76Z"/><path class="cls-7" d="M75.93,45.21a9.1,9.1,0,0,0-6.86.92c3.92-4.3,15.34-4,15.34-4a32.24,32.24,0,0,0-12.73-1.35,34.2,34.2,0,0,1,6.76,1.35s-11.42-.31-15.34,4A9.08,9.08,0,0,1,70,45.21S63.28,46.4,58.4,50a35.12,35.12,0,0,1,11.4-2.93A35.11,35.11,0,0,1,75.93,45.21Z"/><path class="cls-7" d="M75.9,38.33c-5.28-.43-11.73.05-16.06,3.81a22.86,22.86,0,0,1,8.08-1.49A19.5,19.5,0,0,1,75.9,38.33Z"/><path class="cls-6" d="M47.76,98.62s23.5-31.31,42.1-1.53c0,0,2.28,4.29,11.74,3.68,0,0,11.75-.31,11.75,8s-10.44,9.52-18.27,6.76c0,0-5.88,12.26-17.21,15.67a20.42,20.42,0,0,1-15.75-1.82c-4.44-2.49-13.62-7.4-19.92-9.19a9.12,9.12,0,0,0-7.62,1.26c-3.13,2.16-9,5.15-12.27-.09C17.75,114,37,101.69,47.76,98.62Z"/><path class="cls-8" d="M108.29,138.07s5.88,37.45,37.53,34.69c0,0,17.62-3.07,21.53-19.65,0,0-2.93,16-21.21,17.5S116.12,158.64,108.29,138.07Z"/><path class="cls-8" d="M158.05,159.1s15.34-5.22,11.1-22.72C169.15,136.38,170.78,151.73,158.05,159.1Z"/><path class="cls-8" d="M158.38,144.06s15-4.61,11.42-21.19C169.8,122.87,171.76,137.92,158.38,144.06Z"/><path class="cls-8" d="M134.23,114.28s20.23,26.4,32.63,11.36C166.86,125.64,156.09,138.22,134.23,114.28Z"/><path class="cls-9" d="M78.6,102.46s-9.46-7.37-29.37-4C49.23,98.47,64.57,95.71,78.6,102.46Z"/><ellipse class="cls-9" cx="75.17" cy="94.48" rx="0.48" ry="1.57" transform="translate(-41.47 63.33) rotate(-36.54)"/><ellipse class="cls-9" cx="61.47" cy="91.71" rx="1.62" ry="0.46" transform="translate(-24.28 22.17) rotate(-17.12)"/><path class="cls-4" d="M52.07,64.37a10.34,10.34,0,0,0-11.48-3.11A20.55,20.55,0,0,0,26.72,80.43a19.86,19.86,0,0,0,4.72,12.83,10.53,10.53,0,0,0,11.71,2.92A20.51,20.51,0,0,0,56.57,77.06,20.12,20.12,0,0,0,52.07,64.37Z"/><path class="cls-10" d="M28.21,83.42A20.55,20.55,0,0,1,42.09,64.25a10.35,10.35,0,0,1,11.48,3.11,20.29,20.29,0,0,1,1.55,2.24,20.13,20.13,0,0,0-3-5.23,10.34,10.34,0,0,0-11.48-3.11A20.55,20.55,0,0,0,26.72,80.43a19.7,19.7,0,0,0,2.91,10.29A19.57,19.57,0,0,1,28.21,83.42Z"/><ellipse class="cls-6" cx="40.26" cy="79.59" rx="7.83" ry="9.52"/><ellipse class="cls-9" cx="40.26" cy="79.59" rx="6.29" ry="7.64"/><ellipse class="cls-4" cx="40.26" cy="79.59" rx="2.61" ry="3.17"/><ellipse class="cls-4" cx="38.8" cy="73.55" rx="2.44" ry="2.97"/><ellipse class="cls-4" cx="112.53" cy="79.13" rx="21.86" ry="20.57"/><path class="cls-10" d="M112.53,58.56a22.39,22.39,0,0,0-16.66,7.27A22.54,22.54,0,0,1,111,60.05c12.08,0,21.86,9.21,21.86,20.57a19.76,19.76,0,0,1-5.2,13.3,19.94,19.94,0,0,0,6.7-14.79C134.4,67.77,124.61,58.56,112.53,58.56Z"/><ellipse class="cls-6" cx="113.35" cy="79.28" rx="7.83" ry="9.52"/><ellipse class="cls-9" cx="113.35" cy="79.28" rx="6.37" ry="7.74"/><ellipse class="cls-4" cx="113.35" cy="79.28" rx="2.61" ry="3.17"/><ellipse class="cls-4" cx="116.46" cy="74.17" rx="2.44" ry="2.97"/></svg>