<svg xmlns="http://www.w3.org/2000/svg" xmlns:xlink="http://www.w3.org/1999/xlink" viewBox="0 0 181 580"><defs><style>.cls-1{isolation:isolate;}.cls-2{fill:url(#Degradado_sin_nombre_157);}.cls-3{fill:url(#Degradado_sin_nombre_124);}.cls-4{fill:url(#Degradado_sin_nombre_8);}.cls-5{fill:url(#Degradado_sin_nombre_9);}.cls-6{fill:url(#radial-gradient);}.cls-65,.cls-7{mix-blend-mode:screen;}.cls-7{fill:url(#radial-gradient-2);}.cls-8,.cls-9{opacity:0.25;}.cls-10,.cls-11,.cls-12,.cls-13,.cls-14,.cls-15,.cls-16,.cls-17,.cls-18,.cls-19,.cls-20,.cls-21,.cls-22,.cls-23,.cls-24,.cls-25,.cls-26,.cls-27,.cls-28,.cls-29,.cls-30,.cls-31,.cls-32,.cls-33,.cls-34,.cls-35,.cls-36,.cls-37,.cls-38,.cls-39,.cls-40,.cls-41,.cls-42,.cls-43,.cls-44,.cls-45,.cls-46,.cls-47,.cls-48,.cls-49,.cls-50,.cls-51,.cls-52,.cls-53,.cls-54,.cls-55,.cls-56,.cls-57,.cls-58,.cls-59,.cls-60,.cls-61,.cls-62,.cls-63,.cls-64,.cls-8,.cls-9{mix-blend-mode:multiply;}.cls-8{fill:url(#radial-gradient-3);}.cls-9{fill:url(#radial-gradient-4);}.cls-10{fill:url(#radial-gradient-5);}.cls-11{fill:url(#radial-gradient-6);}.cls-12{fill:url(#radial-gradient-7);}.cls-13{fill:url(#radial-gradient-9);}.cls-14{fill:url(#radial-gradient-10);}.cls-15{fill:url(#radial-gradient-11);}.cls-16{fill:url(#radial-gradient-12);}.cls-17{fill:url(#radial-gradient-13);}.cls-18{fill:url(#radial-gradient-14);}.cls-19{fill:url(#radial-gradient-15);}.cls-20{fill:url(#radial-gradient-16);}.cls-21{fill:url(#radial-gradient-18);}.cls-22{fill:url(#radial-gradient-19);}.cls-23{fill:url(#radial-gradient-20);}.cls-24,.cls-39,.cls-40,.cls-41,.cls-42,.cls-43,.cls-44,.cls-45,.cls-46,.cls-47,.cls-48,.cls-49,.cls-50,.cls-51,.cls-52,.cls-53,.cls-54,.cls-55,.cls-56,.cls-57,.cls-58,.cls-59,.cls-60,.cls-61,.cls-62,.cls-63,.cls-64,.cls-65{opacity:0.5;}.cls-25{fill:url(#radial-gradient-21);}.cls-26{fill:url(#radial-gradient-23);}.cls-27{fill:url(#radial-gradient-24);}.cls-28{fill:url(#radial-gradient-25);}.cls-29{fill:url(#radial-gradient-26);}.cls-30{fill:url(#radial-gradient-28);}.cls-31{fill:url(#radial-gradient-29);}.cls-32{fill:url(#radial-gradient-30);}.cls-33{fill:url(#radial-gradient-31);}.cls-34{fill:url(#radial-gradient-33);}.cls-35{fill:url(#radial-gradient-34);}.cls-36{fill:url(#radial-gradient-36);}.cls-37{fill:url(#radial-gradient-37);}.cls-38{fill:url(#radial-gradient-38);}.cls-39{fill:url(#radial-gradient-39);}.cls-40{fill:url(#radial-gradient-40);}.cls-41{fill:url(#radial-gradient-41);}.cls-42{fill:url(#radial-gradient-42);}.cls-43{fill:url(#radial-gradient-43);}.cls-44{fill:url(#radial-gradient-44);}.cls-45{fill:url(#radial-gradient-45);}.cls-46{fill:url(#radial-gradient-46);}.cls-47{fill:url(#radial-gradient-47);}.cls-48{fill:url(#radial-gradient-48);}.cls-49{fill:url(#radial-gradient-49);}.cls-50{fill:url(#radial-gradient-50);}.cls-51{fill:url(#radial-gradient-51);}.cls-52{fill:url(#radial-gradient-52);}.cls-53{fill:url(#radial-gradient-53);}.cls-54{fill:url(#radial-gradient-54);}.cls-55{fill:url(#radial-gradient-55);}.cls-56{fill:url(#radial-gradient-56);}.cls-57{fill:url(#radial-gradient-57);}.cls-58{fill:url(#radial-gradient-58);}.cls-59{fill:url(#radial-gradient-59);}.cls-60{fill:url(#radial-gradient-60);}.cls-61{fill:url(#radial-gradient-61);}.cls-62{fill:url(#radial-gradient-62);}.cls-63{fill:url(#radial-gradient-63);}.cls-64{fill:url(#radial-gradient-64);}.cls-65{fill:url(#radial-gradient-65);}</style><radialGradient id="Degradado_sin_nombre_157" cx="165.28" cy="363.43" fx="38.963729918402706" fy="478.7830045536474" r="364.78" gradientTransform="matrix(0.99, -1.07, 1.02, 1.05, -427.44, 73.41)" gradientUnits="userSpaceOnUse"><stop offset="0.11" stop-color="#faec21" stop-opacity="0.8"/><stop offset="0.29" stop-color="#dc007b" stop-opacity="0.47"/><stop offset="0.53" stop-color="#e18227" stop-opacity="0"/></radialGradient><radialGradient id="Degradado_sin_nombre_124" cx="44.07" cy="147.58" r="442.74" gradientTransform="matrix(0.99, -1.07, 0.45, 0.47, -132.94, 376.8)" gradientUnits="userSpaceOnUse"><stop offset="0.12" stop-color="#ffe045"/><stop offset="0.31" stop-color="#dc007b" stop-opacity="0.47"/><stop offset="0.52" stop-color="#e18227" stop-opacity="0"/></radialGradient><radialGradient id="Degradado_sin_nombre_8" cx="151.21" cy="323.48" fx="17.67042373882731" fy="382.550008063459" r="304.19" gradientTransform="matrix(0.81, -0.88, 1.05, 1.09, -450.69, 65.69)" gradientUnits="userSpaceOnUse"><stop offset="0.06" stop-color="#ffe045"/><stop offset="0.35" stop-color="#dc007b" stop-opacity="0.47"/><stop offset="0.56" stop-color="#e18227" stop-opacity="0"/></radialGradient><radialGradient id="Degradado_sin_nombre_9" cx="153.56" cy="391.49" fx="79.20247439181887" r="317.59" gradientTransform="matrix(0.81, -0.88, 1.05, 1.09, -450.69, 65.69)" gradientUnits="userSpaceOnUse"><stop offset="0.04" stop-color="#ffe045"/><stop offset="0.22" stop-color="#dc007b" stop-opacity="0.47"/><stop offset="0.47" stop-color="#e18227" stop-opacity="0"/></radialGradient><radialGradient id="radial-gradient" cx="47.97" cy="374.47" r="85.35" gradientTransform="matrix(0.7, -0.71, 0.71, 0.7, -250.16, 255.98)" gradientUnits="userSpaceOnUse"><stop offset="0.08" stop-color="#ffe045"/><stop offset="1" stop-color="#e18227"/></radialGradient><radialGradient id="radial-gradient-2" cx="47.91" cy="369" r="71.64" xlink:href="#radial-gradient"/><radialGradient id="radial-gradient-3" cx="45.27" cy="377.4" r="81.46" xlink:href="#radial-gradient"/><radialGradient id="radial-gradient-4" cx="90.14" cy="506.05" r="78.29" xlink:href="#radial-gradient"/><radialGradient id="radial-gradient-5" cx="-17.08" cy="365.02" r="26.05" gradientTransform="translate(-100.11 161.22) rotate(-25.69)" xlink:href="#radial-gradient"/><radialGradient id="radial-gradient-6" cx="-16.21" cy="365.36" r="25.2" gradientTransform="translate(-100.11 161.22) rotate(-25.69)" xlink:href="#radial-gradient"/><radialGradient id="radial-gradient-7" cx="0.7" cy="370.44" r="9.36" gradientTransform="matrix(1.22, -0.59, 0.43, 0.9, -93.9, 158.07)" xlink:href="#radial-gradient"/><radialGradient id="radial-gradient-9" cx="1.02" cy="370.56" r="9.06" gradientTransform="matrix(1.22, -0.59, 0.43, 0.9, -93.9, 158.07)" xlink:href="#radial-gradient"/><radialGradient id="radial-gradient-10" cx="-86.54" cy="602.96" r="16.69" gradientTransform="matrix(-0.91, 1.01, -0.74, -0.67, 473.55, 988.84)" xlink:href="#radial-gradient"/><radialGradient id="radial-gradient-11" cx="-85.98" cy="603.18" r="16.14" gradientTransform="matrix(-0.91, 1.01, -0.74, -0.67, 473.55, 988.84)" xlink:href="#radial-gradient"/><radialGradient id="radial-gradient-12" cx="52.11" cy="427.73" r="18.17" gradientTransform="matrix(0.71, -1.16, 0.85, 0.52, -322.88, 346.59)" xlink:href="#radial-gradient"/><radialGradient id="radial-gradient-13" cx="52.72" cy="427.97" r="17.58" gradientTransform="matrix(0.71, -1.16, 0.85, 0.52, -322.88, 346.59)" xlink:href="#radial-gradient"/><radialGradient id="radial-gradient-14" cx="-40.4" cy="355.24" r="11.44" gradientTransform="translate(-3.49 132.81) rotate(-14.25)" xlink:href="#radial-gradient"/><radialGradient id="radial-gradient-15" cx="-40.02" cy="355.39" r="11.06" gradientTransform="translate(-3.49 132.81) rotate(-14.25)" xlink:href="#radial-gradient"/><radialGradient id="radial-gradient-16" cx="23.17" cy="399.48" r="16.86" gradientTransform="translate(-219.96 232.46) rotate(-40.77)" xlink:href="#radial-gradient"/><radialGradient id="radial-gradient-18" cx="23.73" cy="399.71" r="16.31" gradientTransform="translate(-219.96 232.46) rotate(-40.77)" xlink:href="#radial-gradient"/><radialGradient id="radial-gradient-19" cx="-104.12" cy="622.45" r="16.86" gradientTransform="translate(473.13 984.7) rotate(135.8)" xlink:href="#radial-gradient"/><radialGradient id="radial-gradient-20" cx="-103.55" cy="622.68" r="16.31" gradientTransform="translate(473.13 984.7) rotate(135.8)" xlink:href="#radial-gradient"/><radialGradient id="radial-gradient-21" cx="-55.89" cy="613.97" r="12.9" gradientTransform="translate(326.86 1083.12) rotate(156.15)" xlink:href="#radial-gradient"/><radialGradient id="radial-gradient-23" cx="-55.46" cy="614.14" r="12.48" gradientTransform="translate(326.86 1083.12) rotate(156.15)" xlink:href="#radial-gradient"/><radialGradient id="radial-gradient-24" cx="-46.9" cy="638.87" r="10.21" gradientTransform="translate(326.86 1083.12) rotate(156.15)" xlink:href="#radial-gradient"/><radialGradient id="radial-gradient-25" cx="-46.56" cy="639" r="9.88" gradientTransform="translate(326.86 1083.12) rotate(156.15)" xlink:href="#radial-gradient"/><radialGradient id="radial-gradient-26" cx="-143.46" cy="498.18" r="23.82" gradientTransform="translate(600.2 455.78) rotate(74)" xlink:href="#radial-gradient"/><radialGradient id="radial-gradient-28" cx="-142.67" cy="498.49" r="23.05" gradientTransform="translate(600.2 455.78) rotate(74)" xlink:href="#radial-gradient"/><radialGradient id="radial-gradient-29" cx="-128.83" cy="458.25" r="10.21" gradientTransform="matrix(0.63, 0.78, -0.78, 0.63, 495.06, 276.46)" xlink:href="#radial-gradient"/><radialGradient id="radial-gradient-30" cx="-128.49" cy="458.38" r="9.88" gradientTransform="matrix(0.63, 0.78, -0.78, 0.63, 495.06, 276.46)" xlink:href="#radial-gradient"/><radialGradient id="radial-gradient-31" cx="150.34" cy="527.25" r="10.21" gradientTransform="translate(-391.19 810.81) rotate(-103.58)" xlink:href="#radial-gradient"/><radialGradient id="radial-gradient-33" cx="150.68" cy="527.39" r="9.88" gradientTransform="translate(-391.19 810.81) rotate(-103.58)" xlink:href="#radial-gradient"/><radialGradient id="radial-gradient-34" cx="-0.73" cy="757.21" r="10.21" gradientTransform="translate(232.32 -225.78) rotate(8.37)" xlink:href="#radial-gradient"/><radialGradient id="radial-gradient-36" cx="-0.39" cy="757.34" r="9.88" gradientTransform="translate(232.32 -225.78) rotate(8.37)" xlink:href="#radial-gradient"/><radialGradient id="radial-gradient-37" cx="-59.68" cy="630.19" r="15.61" gradientTransform="matrix(-0.92, 0.4, -0.4, -0.92, 322.68, 1083.8)" xlink:href="#radial-gradient"/><radialGradient id="radial-gradient-38" cx="-59.16" cy="630.4" r="15.1" gradientTransform="matrix(-0.92, 0.4, -0.4, -0.92, 322.68, 1083.8)" xlink:href="#radial-gradient"/><radialGradient id="radial-gradient-39" cx="97.64" cy="379.3" r="3.96" xlink:href="#radial-gradient"/><radialGradient id="radial-gradient-40" cx="96.74" cy="389.69" r="2.54" xlink:href="#radial-gradient"/><radialGradient id="radial-gradient-41" cx="30.66" cy="427.68" r="4.52" xlink:href="#radial-gradient"/><radialGradient id="radial-gradient-42" cx="33.91" cy="412.68" r="3.39" xlink:href="#radial-gradient"/><radialGradient id="radial-gradient-43" cx="54.69" cy="435.68" r="13" xlink:href="#radial-gradient"/><radialGradient id="radial-gradient-44" cx="63.39" cy="430.12" r="4.8" xlink:href="#radial-gradient"/><radialGradient id="radial-gradient-45" cx="64.16" cy="438.98" r="3.67" xlink:href="#radial-gradient"/><radialGradient id="radial-gradient-46" cx="20.18" cy="428.04" r="3.67" xlink:href="#radial-gradient"/><radialGradient id="radial-gradient-47" cx="35.04" cy="401.08" r="2.83" xlink:href="#radial-gradient"/><radialGradient id="radial-gradient-48" cx="51.2" cy="368.06" r="7.91" xlink:href="#radial-gradient"/><radialGradient id="radial-gradient-49" cx="43.36" cy="385.84" r="3.39" xlink:href="#radial-gradient"/><radialGradient id="radial-gradient-50" cx="45.45" cy="363.4" r="3.96" xlink:href="#radial-gradient"/><radialGradient id="radial-gradient-51" cx="32.56" cy="369.52" r="2.83" xlink:href="#radial-gradient"/><radialGradient id="radial-gradient-52" cx="70.19" cy="368.79" r="11.59" xlink:href="#radial-gradient"/><radialGradient id="radial-gradient-53" cx="60.23" cy="386.68" r="4.52" xlink:href="#radial-gradient"/><radialGradient id="radial-gradient-54" cx="94.47" cy="368.16" r="3.67" xlink:href="#radial-gradient"/><radialGradient id="radial-gradient-55" cx="89.91" cy="390.08" r="5.09" xlink:href="#radial-gradient"/><radialGradient id="radial-gradient-56" cx="89.55" cy="400.34" r="4.52" xlink:href="#radial-gradient"/><radialGradient id="radial-gradient-57" cx="68.81" cy="419.31" r="3.96" xlink:href="#radial-gradient"/><radialGradient id="radial-gradient-58" cx="91.1" cy="418.77" r="4.24" xlink:href="#radial-gradient"/><radialGradient id="radial-gradient-59" cx="90.99" cy="426.06" r="3.67" xlink:href="#radial-gradient"/><radialGradient id="radial-gradient-60" cx="90.6" cy="441.44" r="7.35" xlink:href="#radial-gradient"/><radialGradient id="radial-gradient-61" cx="88.73" cy="452.42" r="2.26" xlink:href="#radial-gradient"/><radialGradient id="radial-gradient-62" cx="104.05" cy="436.5" r="1.98" xlink:href="#radial-gradient"/><radialGradient id="radial-gradient-63" cx="76.92" cy="453.1" r="2.83" xlink:href="#radial-gradient"/><radialGradient id="radial-gradient-64" cx="108.3" cy="380.57" r="1.98" xlink:href="#radial-gradient"/><radialGradient id="radial-gradient-65" cx="50.97" cy="377.41" r="49.77" xlink:href="#radial-gradient"/></defs><title>ELEMENTOS PARA LA PAGINA ROJO</title><g class="cls-1"><g id="Capa_1" data-name="Capa 1"><path class="cls-2" d="M143,67.37c-2.47-7.89-6.22-15.39-10.15-22.85-1.24-2.36-4-3.39-5.71-2.13h0c-7.27,5.41-13.62,11.45-22.72,14.14-3.64,1.07-8.3-1.06-10.44-5.34-6.47-13,.8-25.74,1.22-37.67-.36.2-.7.4-.94.56A65.26,65.26,0,0,0,81.53,26C70.52,39,46.07,105.69,38,130.35c-7.38,22.55-11.08,54.78-17.62,99.05-.63,4.24-5.4,134-5.7,200.7-.37,80.5,20.68,117,62.56,128.19,47.13,12.59,70.37-24,75.08-76.59,6.45-83.87-9.07-273.32-3.29-386.95C149.05,94.26,145.7,76,143,67.37Z"/><path class="cls-3" d="M132.83,44.48c-1.23-2.33-4-3.37-5.66-2.11l0,0c-7.27,5.41-13.62,11.45-22.72,14.14-3.64,1.07-8.3-1.06-10.44-5.34a25.26,25.26,0,0,1-2.58-9.44c-.32-4.08-5.68-6.19-7.06-2.76C47.53,130.24,47.42,338.76,44,460.26c-.85,31.35,20,60.22,41.57,62s35.76-18.23,35-43.49c-4.22-116.08-23.75-338.06,15.29-425.51a4,4,0,0,0-.21-3.35C134.73,48.13,133.78,46.3,132.83,44.48Z"/><path class="cls-4" d="M103,54.94C99.34,56,94.69,53.88,92.55,49.6c-6.48-13,.79-25.73,1.22-37.67-.37.2-.71.4-1,.56A65.2,65.2,0,0,0,80.1,24.39c-11,13-33,76-40.63,91.63-4.2,8.6-7.91,33.55-12.7,41.81-13.08,83.72,1.57,192.09-.89,282.42A72.89,72.89,0,0,0,30.7,467.9c11.85,16.91,27,28.8,43.17,34.39,18-2.5,29.28-20.69,28.54-43.51-4-109.24-20.61-320,10.24-408.32A38.39,38.39,0,0,1,103,54.94Z"/><path class="cls-5" d="M143,67.37c-2.47-7.89-6.22-15.39-10.15-22.85-1.24-2.36-4-3.39-5.71-2.13h0c-7.27,5.41-13.62,11.45-22.72,14.14a7.07,7.07,0,0,1-2.6.24,2.76,2.76,0,0,0-2.95,1.69C62.63,149.77,62.58,357.73,59.89,479c-.56,24.46,12.29,48,28.22,57.27a4,4,0,0,0,2.08.56c16.93-.42,31.16-7.59,42.59-17.93a2.89,2.89,0,0,0,.77-1.18,55.33,55.33,0,0,0,2.86-20.61C131.77,385.86,113.88,171.83,146.25,83a3.55,3.55,0,0,0,.11-2A134.8,134.8,0,0,0,143,67.37Z"/><path class="cls-6" d="M114.37,452.52c24.27,30,45.36,64.44,4,85.85-22.15,11.47-51.82,19.91-70.17-3.83-18.63-24.11-21.82-55.38-.84-76.82S95.5,429.19,114.37,452.52Z"/><path class="cls-7" d="M54.7,536.88a54.32,54.32,0,0,1,53.24-91C89,429.27,63.62,441.14,47.4,457.72c-21,21.44-18.51,51.92,2.89,78.76,5.76,7.23,9.34,10.32,21.36,12.44C65.76,546.35,59.57,541.64,54.7,536.88Z"/><path class="cls-8" d="M127,504.91a54.31,54.31,0,0,1-76.82.84c-8-7.87-11.29-21.85-13.39-32.1-7.59,15.54-2.3,43.41,12.1,61.24,18.85,23.34,49.4,18,83.7-6.43,14.93-10.62,8.81-39.73,1.55-46.15C131.56,489.64,132.75,499,127,504.91Z"/><path class="cls-9" d="M78.68,438.6c4.43,2.31,15.26,8.08,19,11.76A52,52,0,0,1,53.42,539c17.7,20.51,59.35,8.86,79.13-10.53,19.13-18.75,7.6-45.85-20.34-78.33C102.36,438.68,94.67,437.13,78.68,438.6Z"/><path class="cls-10" d="M52.84,509.74c2.79,5.81,2.27,11.85-1.16,13.5s-8.47-1.72-11.26-7.52-2.27-11.85,1.16-13.5S50.05,503.94,52.84,509.74Z"/><path class="cls-11" d="M42.92,501.84c-2.07,2.48-2.08,7.46.26,12.32,2.45,5.08,6.62,8.29,9.92,7.9,2.06-2.48,2.07-7.46-.26-12.32C50.39,504.66,46.22,501.45,42.92,501.84Z"/><path class="cls-12" d="M71.63,495.62c1,2.08.45,4.43-1.22,5.23s-3.84-.23-4.85-2.31-.45-4.43,1.22-5.24S70.62,493.53,71.63,495.62Z"/><path class="cls-12" d="M71.63,495.62c1,2.08.45,4.43-1.22,5.23s-3.84-.23-4.85-2.31-.45-4.43,1.22-5.24S70.62,493.53,71.63,495.62Z"/><path class="cls-13" d="M67.42,493.09a4.12,4.12,0,0,0-.5,4.71,4.08,4.08,0,0,0,4.21,2.53,4.13,4.13,0,0,0,.5-4.71A4.07,4.07,0,0,0,67.42,493.09Z"/><path class="cls-14" d="M96.82,492.17c-3-2.77-3.72-7-1.49-9.45s6.5-2.19,9.55.58,3.72,7,1.5,9.46S99.87,495,96.82,492.17Z"/><path class="cls-15" d="M105.46,493.54c1.08-2.46.23-5.79-2.33-8.11s-6.29-2.93-8.64-1.37c-1.08,2.46-.22,5.79,2.33,8.11S103.11,495.1,105.46,493.54Z"/><path class="cls-16" d="M90.37,510.89c3.84,2.33,5.43,6.72,3.55,9.8s-6.5,3.69-10.34,1.36-5.43-6.73-3.55-9.81S86.53,508.55,90.37,510.89Z"/><path class="cls-17" d="M80.85,511.21c-.65,2.86,1,6.25,4.16,8.2,3.37,2,7.33,1.83,9.53-.32.64-2.86-1-6.25-4.17-8.2C87,508.84,83,509.06,80.85,511.21Z"/><path class="cls-18" d="M48.05,493.19c.7,2.74,0,5.29-1.67,5.7s-3.49-1.47-4.19-4.21.05-5.3,1.67-5.71S47.36,490.45,48.05,493.19Z"/><path class="cls-19" d="M44.47,488.92c-1.1.89-1.54,3-1,5.33s2.13,4.14,3.58,4.26c1.11-.89,1.55-3,1-5.32S45.93,489,44.47,488.92Z"/><path class="cls-20" d="M66.81,525.8c2.72,3.15,3.42,7,1.55,8.62s-5.58.35-8.3-2.8-3.42-7-1.55-8.63S64.09,522.64,66.81,525.8Z"/><path class="cls-20" d="M66.81,525.8c2.72,3.15,3.42,7,1.55,8.62s-5.58.35-8.3-2.8-3.42-7-1.55-8.63S64.09,522.64,66.81,525.8Z"/><path class="cls-21" d="M59.28,522.53c-.87,1.89,0,5,2.24,7.65s5.53,4.07,7.53,3.27c.87-1.9,0-5-2.24-7.65S61.28,521.73,59.28,522.53Z"/><path class="cls-22" d="M105.1,460.45c-2.91-3-3.83-6.8-2.07-8.52s5.55-.68,8.46,2.31,3.83,6.79,2.06,8.51S108,463.44,105.1,460.45Z"/><path class="cls-23" d="M112.81,463.26c.75-1.94-.26-5-2.69-7.5s-5.77-3.73-7.71-2.81c-.76,1.94.26,5,2.69,7.5S110.86,464.18,112.81,463.26Z"/><g class="cls-24"><path class="cls-25" d="M124.9,492.77c-1.29-2.92-.94-5.9.78-6.66s4.17,1,5.46,3.9.93,5.9-.79,6.66S126.18,495.69,124.9,492.77Z"/><path class="cls-25" d="M124.9,492.77c-1.29-2.92-.94-5.9.78-6.66s4.17,1,5.46,3.9.93,5.9-.79,6.66S126.18,495.69,124.9,492.77Z"/><path class="cls-26" d="M129.68,496.84c1.06-1.19,1.15-3.66.07-6.1s-3.15-4.21-4.79-4.07c-1.06,1.19-1.14,3.66-.06,6.1S128,497,129.68,496.84Z"/></g><path class="cls-27" d="M107.6,474.93c-1-2.31-.74-4.67.62-5.27s3.3.77,4.32,3.08.74,4.67-.62,5.27S108.62,477.23,107.6,474.93Z"/><path class="cls-28" d="M111.39,478.15c.84-.95.9-2.9,0-4.83S109,470,107.65,470.1c-.84.94-.9,2.9-.05,4.83S110.09,478.26,111.39,478.15Z"/><path class="cls-29" d="M69.21,462.43c-5.66,1.62-11,.23-12-3.12s2.85-7.37,8.51-9,11-.23,12,3.11S74.87,460.81,69.21,462.43Z"/><path class="cls-29" d="M69.21,462.43c-5.66,1.62-11,.23-12-3.12s2.85-7.37,8.51-9,11-.23,12,3.11S74.87,460.81,69.21,462.43Z"/><path class="cls-30" d="M77.86,454.7c-1.92-2.24-6.41-3-11.15-1.66-4.95,1.43-8.49,4.69-8.65,7.73,1.92,2.24,6.41,3,11.15,1.66C74.16,461,77.7,457.74,77.86,454.7Z"/><path class="cls-31" d="M53.24,467.62c-2,1.58-4.32,1.91-5.25.75s-.09-3.39,1.88-5,4.32-1.92,5.25-.76S55.21,466,53.24,467.62Z"/><path class="cls-32" d="M55.38,463.13c-1.12-.57-3-.13-4.67,1.19s-2.59,3.26-2.14,4.49c1.12.57,3,.13,4.67-1.19S55.83,464.36,55.38,463.13Z"/><path class="cls-33" d="M91.53,538c2.45-.6,4.73.1,5.08,1.55s-1.36,3.1-3.81,3.7-4.73-.11-5.08-1.56S89.08,538.57,91.53,538Z"/><path class="cls-33" d="M91.53,538c2.45-.6,4.73.1,5.08,1.55s-1.36,3.1-3.81,3.7-4.73-.11-5.08-1.56S89.08,538.57,91.53,538Z"/><path class="cls-34" d="M87.69,541.13c.78,1,2.69,1.41,4.74.91s3.72-1.85,3.84-3.15c-.78-1-2.69-1.41-4.74-.91S87.81,539.83,87.69,541.13Z"/><path class="cls-35" d="M121.94,529.46c-.37,2.5-1.86,4.35-3.33,4.13s-2.38-2.42-2-4.91,1.86-4.35,3.34-4.13S122.31,527,121.94,529.46Z"/><path class="cls-35" d="M121.94,529.46c-.37,2.5-1.86,4.35-3.33,4.13s-2.38-2.42-2-4.91,1.86-4.35,3.34-4.13S122.31,527,121.94,529.46Z"/><path class="cls-36" d="M120.46,524.72c-1.22.35-2.32,2-2.62,4.06s.33,4.14,1.48,4.74c1.22-.35,2.31-2,2.62-4.06S121.61,525.32,120.46,524.72Z"/><path class="cls-37" d="M118.59,475.12c-1.54-3.53-1.11-7.14,1-8.05s5,1.2,6.59,4.74,1.11,7.14-1,8.05S120.14,478.65,118.59,475.12Z"/><path class="cls-38" d="M124.37,480.06c1.29-1.44,1.4-4.42.1-7.38s-3.79-5.1-5.77-4.94c-1.29,1.44-1.4,4.42-.11,7.38S122.38,480.23,124.37,480.06Z"/><path class="cls-39" d="M91.55,452.35a1.74,1.74,0,1,1-2.46,0A1.74,1.74,0,0,1,91.55,452.35Z"/><path class="cls-40" d="M97.52,459.93a1.12,1.12,0,1,1-1.58,0A1.12,1.12,0,0,1,97.52,459.93Z"/><path class="cls-41" d="M79.62,534.18a2,2,0,1,1-2.81,0A2,2,0,0,1,79.62,534.18Z"/><path class="cls-42" d="M70.51,521.1a1.49,1.49,0,1,1-2.1,0A1.5,1.5,0,0,1,70.51,521.1Z"/><path class="cls-43" d="M107.1,524.57a5.71,5.71,0,1,1-8.08.09A5.71,5.71,0,0,1,107.1,524.57Z"/><path class="cls-44" d="M104.42,512.56a2.11,2.11,0,1,1-3,0A2.12,2.12,0,0,1,104.42,512.56Z"/><path class="cls-45" d="M110.63,517.94a1.62,1.62,0,1,1-2.28,0A1.61,1.61,0,0,1,110.63,517.94Z"/><path class="cls-46" d="M72.06,541.73a1.62,1.62,0,1,1-2.29,0A1.61,1.61,0,0,1,72.06,541.73Z"/><path class="cls-47" d="M62.69,512.05a1.24,1.24,0,1,1-1.76,0A1.25,1.25,0,0,1,62.69,512.05Z"/><path class="cls-48" d="M53.36,478.6a3.48,3.48,0,1,1-4.92,0A3.46,3.46,0,0,1,53.36,478.6Z"/><path class="cls-49" d="M57.94,495.59a1.49,1.49,0,1,1-2.11,0A1.49,1.49,0,0,1,57.94,495.59Z"/><path class="cls-50" d="M43.69,478.53a1.74,1.74,0,1,1-2.46,0A1.74,1.74,0,0,1,43.69,478.53Z"/><path class="cls-51" d="M38.39,491.76a1.24,1.24,0,1,1-1.76,0A1.25,1.25,0,0,1,38.39,491.76Z"/><path class="cls-52" d="M69.3,466.39a5.09,5.09,0,1,1-7.2.07A5.09,5.09,0,0,1,69.3,466.39Z"/><path class="cls-53" d="M71,484.38a2,2,0,1,1-2.81,0A2,2,0,0,1,71,484.38Z"/><path class="cls-54" d="M81.21,446.75A1.62,1.62,0,1,1,79,449.06a1.62,1.62,0,0,1,2.26-2.31Z"/><path class="cls-55" d="M94.51,465.67a2.24,2.24,0,1,1-3.16,0A2.23,2.23,0,0,1,94.51,465.67Z"/><path class="cls-56" d="M101.26,473a2,2,0,1,1-2.81,0A2,2,0,0,1,101.26,473Z"/><path class="cls-57" d="M100,500.93a1.74,1.74,0,1,1-2.46,0A1.74,1.74,0,0,1,100,500.93Z"/><path class="cls-58" d="M115.36,484.68a1.87,1.87,0,1,1-2.63,0A1.87,1.87,0,0,1,115.36,484.68Z"/><path class="cls-59" d="M120.16,489.72A1.62,1.62,0,1,1,117.9,492a1.62,1.62,0,0,1,2.26-2.31Z"/><path class="cls-60" d="M133,501.62a3.23,3.23,0,1,1-4.57.05A3.24,3.24,0,0,1,133,501.62Z"/><path class="cls-61" d="M136.59,509.45a1,1,0,1,1-1.39,1.42,1,1,0,0,1,1.39-1.42Z"/><path class="cls-62" d="M135.76,487.31a.87.87,0,0,1,0,1.23.88.88,0,0,1-1.23,0,.87.87,0,1,1,1.21-1.24Z"/><path class="cls-63" d="M129.15,518.5a1.24,1.24,0,1,1-1.76,0A1.23,1.23,0,0,1,129.15,518.5Z"/><path class="cls-64" d="M98.76,445.15a.87.87,0,1,1-1.23,0A.87.87,0,0,1,98.76,445.15Z"/><path class="cls-65" d="M97.38,468.69a31.64,31.64,0,1,1-44.75.49A31.63,31.63,0,0,1,97.38,468.69Z"/></g></g></svg>