<svg xmlns="http://www.w3.org/2000/svg" xmlns:xlink="http://www.w3.org/1999/xlink" viewBox="0 0 400 400"><defs><style>.cls-1{isolation:isolate;}.cls-2{fill:none;stroke:#03062b;}.cls-16,.cls-2,.cls-20{stroke-miterlimit:10;}.cls-16,.cls-2{stroke-width:3px;}.cls-10,.cls-11,.cls-12,.cls-13,.cls-14,.cls-15,.cls-16,.cls-18,.cls-19,.cls-21,.cls-22,.cls-29,.cls-3,.cls-30,.cls-32,.cls-33,.cls-34,.cls-5,.cls-7,.cls-8,.cls-9{fill-rule:evenodd;}.cls-3{fill:url(#Degradado_sin_nombre_55);}.cls-10,.cls-13,.cls-15,.cls-30,.cls-33,.cls-4{mix-blend-mode:multiply;}.cls-5{fill:url(#Degradado_sin_nombre_57);}.cls-12,.cls-17,.cls-6,.cls-9{mix-blend-mode:screen;}.cls-7{fill:url(#radial-gradient);}.cls-8{fill:#00bbf7;}.cls-9{fill:url(#radial-gradient-2);}.cls-10{fill:url(#Degradado_sin_nombre_57-2);}.cls-11{fill:url(#Degradado_sin_nombre_73);}.cls-12{fill:url(#radial-gradient-3);}.cls-13{fill:url(#Degradado_sin_nombre_57-3);}.cls-14{fill:url(#radial-gradient-4);}.cls-15,.cls-17,.cls-33{opacity:0.5;}.cls-15{fill:url(#radial-gradient-5);}.cls-16{stroke:#1b1464;fill:url(#Degradado_sin_nombre_73-2);}.cls-18{fill:url(#radial-gradient-6);}.cls-19{fill:url(#radial-gradient-7);}.cls-20{fill:#76ecff;stroke:#0071ba;stroke-width:0.5px;}.cls-21{fill:url(#Degradado_sin_nombre_73-3);}.cls-22{fill:url(#Degradado_sin_nombre_57-4);}.cls-23{fill:url(#Degradado_sin_nombre_89);}.cls-24{fill:url(#Degradado_sin_nombre_89-2);}.cls-25{fill:url(#Degradado_sin_nombre_89-3);}.cls-26{fill:url(#Degradado_sin_nombre_89-4);}.cls-27{fill:url(#Degradado_sin_nombre_89-5);}.cls-28{fill:url(#Degradado_sin_nombre_89-6);}.cls-29{fill:url(#Degradado_sin_nombre_73-4);}.cls-30{fill:url(#Degradado_sin_nombre_57-5);}.cls-31{fill:url(#Degradado_sin_nombre_89-7);}.cls-32{fill:url(#radial-gradient-8);}.cls-33{fill:url(#radial-gradient-9);}.cls-34{fill:#03062b;}.cls-35{fill:url(#Degradado_sin_nombre_40);}</style><linearGradient id="Degradado_sin_nombre_55" x1="149.24" y1="28.83" x2="342.26" y2="53.86" gradientTransform="translate(-7.19 -16.3) rotate(5.61)" gradientUnits="userSpaceOnUse"><stop offset="0" stop-color="#6dccf7"/><stop offset="1" stop-color="#0071ba"/></linearGradient><linearGradient id="Degradado_sin_nombre_57" x1="243.85" y1="38.03" x2="335.97" y2="38.03" gradientTransform="translate(-7.19 -16.3) rotate(5.61)" gradientUnits="userSpaceOnUse"><stop offset="0" stop-color="#cfdfec"/><stop offset="0.34" stop-color="#8cdfec"/><stop offset="0.94" stop-color="#732fa2"/></linearGradient><radialGradient id="radial-gradient" cx="212.56" cy="13.78" r="38.43" gradientTransform="matrix(0.98, 0.1, -0.1, 1, -5.31, -16.12)" xlink:href="#Degradado_sin_nombre_57"/><radialGradient id="radial-gradient-2" cx="239.21" cy="46.54" r="67.16" gradientTransform="translate(-7.19 -16.3) rotate(5.61)" xlink:href="#Degradado_sin_nombre_57"/><linearGradient id="Degradado_sin_nombre_57-2" x1="311.38" y1="73.78" x2="341.52" y2="73.78" xlink:href="#Degradado_sin_nombre_57"/><linearGradient id="Degradado_sin_nombre_73" x1="42.8" y1="112.55" x2="416.26" y2="112.55" gradientTransform="translate(-7.19 -16.3) rotate(5.61)" gradientUnits="userSpaceOnUse"><stop offset="0" stop-color="#6dccf7"/><stop offset="0.45" stop-color="#0071ba"/><stop offset="1" stop-color="#662d8f"/></linearGradient><radialGradient id="radial-gradient-3" cx="185.87" cy="59.53" r="102.63" gradientTransform="translate(-7.19 -16.3) rotate(5.61)" xlink:href="#Degradado_sin_nombre_57"/><linearGradient id="Degradado_sin_nombre_57-3" x1="306.06" y1="131.55" x2="416.26" y2="131.55" xlink:href="#Degradado_sin_nombre_57"/><radialGradient id="radial-gradient-4" cx="229.53" cy="120.17" r="140.99" gradientTransform="translate(-7.19 -16.3) rotate(5.61)" gradientUnits="userSpaceOnUse"><stop offset="0" stop-color="#ecc86c"/><stop offset="0.34" stop-color="#eca429"/><stop offset="0.94" stop-color="#eab700"/></radialGradient><radialGradient id="radial-gradient-5" cx="386.23" cy="162.15" r="28.99" gradientTransform="translate(-7.19 -16.3) rotate(5.61)" gradientUnits="userSpaceOnUse"><stop offset="0.08" stop-color="#dda945"/><stop offset="1" stop-color="#e44a24"/></radialGradient><linearGradient id="Degradado_sin_nombre_73-2" x1="54.03" y1="97.17" x2="54.51" y2="97.17" xlink:href="#Degradado_sin_nombre_73"/><radialGradient id="radial-gradient-6" cx="211.3" cy="91.02" r="122.58" gradientTransform="translate(-7.19 -16.3) rotate(5.61)" gradientUnits="userSpaceOnUse"><stop offset="0" stop-color="#eca429"/><stop offset="0.94" stop-color="#eab700"/></radialGradient><radialGradient id="radial-gradient-7" cx="385.92" cy="170.15" r="18.32" xlink:href="#radial-gradient-6"/><linearGradient id="Degradado_sin_nombre_73-3" x1="53.25" y1="137.29" x2="399.1" y2="137.29" xlink:href="#Degradado_sin_nombre_73"/><linearGradient id="Degradado_sin_nombre_57-4" x1="277.42" y1="169.52" x2="399.1" y2="169.52" xlink:href="#Degradado_sin_nombre_57"/><radialGradient id="Degradado_sin_nombre_89" cx="100.83" cy="125.81" r="7.98" gradientTransform="translate(139.4 -31.46) rotate(60)" gradientUnits="userSpaceOnUse"><stop offset="0" stop-color="#fff"/><stop offset="1" stop-color="#8cdfec"/></radialGradient><radialGradient id="Degradado_sin_nombre_89-2" cx="98.48" cy="92.42" r="10.93" gradientTransform="translate(112.58 -46.2) rotate(60)" xlink:href="#Degradado_sin_nombre_89"/><radialGradient id="Degradado_sin_nombre_89-3" cx="332.91" cy="190.48" r="7.98" gradientTransform="translate(496.72 -126.67) rotate(90.13)" xlink:href="#Degradado_sin_nombre_89"/><radialGradient id="Degradado_sin_nombre_89-4" cx="351.58" cy="162.7" r="10.93" gradientTransform="translate(490.27 -171.23) rotate(90.13)" xlink:href="#Degradado_sin_nombre_89"/><radialGradient id="Degradado_sin_nombre_89-5" cx="191.32" cy="101.58" r="13.03" gradientTransform="translate(236.47 -103.7) rotate(79)" xlink:href="#Degradado_sin_nombre_89"/><radialGradient id="Degradado_sin_nombre_89-6" cx="282.08" cy="126.12" r="13.09" gradientTransform="translate(281.29 -171.54) rotate(69.64)" xlink:href="#Degradado_sin_nombre_89"/><linearGradient id="Degradado_sin_nombre_73-4" x1="117.37" y1="162.74" x2="312.29" y2="162.74" xlink:href="#Degradado_sin_nombre_73"/><linearGradient id="Degradado_sin_nombre_57-5" x1="118.53" y1="174.37" x2="312.29" y2="174.37" xlink:href="#Degradado_sin_nombre_57"/><radialGradient id="Degradado_sin_nombre_89-7" cx="213.41" cy="170.56" r="41.96" gradientTransform="translate(299.97 -75.12) rotate(75.44)" xlink:href="#Degradado_sin_nombre_89"/><radialGradient id="radial-gradient-8" cx="213.41" cy="170.68" r="41.93" xlink:href="#radial-gradient-6"/><radialGradient id="radial-gradient-9" cx="215.02" cy="168.09" r="40.25" xlink:href="#radial-gradient-5"/><linearGradient id="Degradado_sin_nombre_40" x1="161.02" y1="326.37" x2="263.51" y2="115.76" gradientTransform="matrix(1, 0.1, -0.1, 0.99, -6.03, -12.11)" gradientUnits="userSpaceOnUse"><stop offset="0" stop-color="red" stop-opacity="0"/><stop offset="0.09" stop-color="red" stop-opacity="0.05"/><stop offset="0.24" stop-color="red" stop-opacity="0.17"/><stop offset="0.45" stop-color="red" stop-opacity="0.36"/><stop offset="0.7" stop-color="red" stop-opacity="0.64"/><stop offset="0.99" stop-color="red" stop-opacity="0.98"/><stop offset="1" stop-color="red"/></linearGradient></defs><title>FINAL ELEMENTOS</title><g class="cls-1"><g id="Capa_1" data-name="Capa 1"><path class="cls-2" d="M234.32,60.21c32.9,14,63.81,31.09,89.34,48.8C318.44,56.53,276.32,13.19,221.2,7.77a114.39,114.39,0,0,0-85.8,26.91C169.41,38.94,205.62,48,234.32,60.21Z"/><path class="cls-3" d="M234.32,60.21c32.9,14,63.81,31.09,89.34,48.8C318.44,56.53,276.32,13.19,221.2,7.77a114.39,114.39,0,0,0-85.8,26.91C169.41,38.94,205.62,48,234.32,60.21Z"/><g class="cls-4"><path class="cls-5" d="M292.91,69.67A208.3,208.3,0,0,1,320,89.76,113.89,113.89,0,0,0,235.25,10,114,114,0,0,1,292.91,69.67Z"/></g><g class="cls-6"><path class="cls-7" d="M162.33,26.4a113,113,0,0,1,92.86-9.75,112.93,112.93,0,0,0-106,8.39C152.85,25.35,157.3,25.79,162.33,26.4Z"/></g><path class="cls-2" d="M148.68,23.38a114.56,114.56,0,0,0-13.13,9.69c34,4.27,70.23,13.31,98.93,25.53,32.9,14,63.81,31.09,89.34,48.81a111.83,111.83,0,0,0-3.65-19.23C262.64,37.51,180,26,148.68,23.38Z"/><path class="cls-8" d="M148.68,23.38a114.56,114.56,0,0,0-13.13,9.69c34,4.27,70.23,13.31,98.93,25.53,32.9,14,63.81,31.09,89.34,48.81a111.83,111.83,0,0,0-3.65-19.23C262.64,37.51,180,26,148.68,23.38Z"/><path class="cls-9" d="M151.19,25.43C181.36,27.93,259,38.71,316,84.64,258.74,37,179.29,25.91,148.68,23.38a114.56,114.56,0,0,0-13.13,9.69c1.43.18,2.87.38,4.31.58A114.74,114.74,0,0,1,151.19,25.43Z"/><path class="cls-10" d="M303.21,94c7.18,4.41,14.07,8.9,20.61,13.44a111.83,111.83,0,0,0-3.65-19.23,205.7,205.7,0,0,0-23-17.5A110.93,110.93,0,0,1,303.21,94Z"/><path class="cls-2" d="M234.48,58.6C162.53,28,43.33,17.27,30,51.91c-3.78,9.82-.86,21.61,7.52,34.34a16.06,16.06,0,0,1,.34-10.44C48,51.1,129.86,62.45,221.49,99.09,328,141.67,390.81,200.62,367.14,211.46c13.38-4,21.82-10.83,23.53-20.71C396.71,155.81,322.73,96.19,234.48,58.6Z"/><path class="cls-11" d="M234.48,58.6C162.53,28,43.33,17.27,30,51.91c-3.78,9.82-.86,21.61,7.52,34.34a16.06,16.06,0,0,1,.34-10.44C48,51.1,129.86,62.45,221.49,99.09,328,141.67,390.81,200.62,367.14,211.46c13.38-4,21.82-10.83,23.53-20.71C396.71,155.81,322.73,96.19,234.48,58.6Z"/><path class="cls-12" d="M232.77,61.4A521.54,521.54,0,0,1,312,99.48,522.05,522.05,0,0,0,234.48,58.6C162.53,28,43.33,17.27,30,51.91a25.34,25.34,0,0,0-1.61,10C41.43,27.34,160.09,33.62,232.77,61.4Z"/><path class="cls-13" d="M290.27,86.3c49.81,32.07,83.21,67.58,79.08,91.51a20.35,20.35,0,0,1-5,10.17c9,11.41,10.44,20,2.77,23.48,13.38-4,21.82-10.83,23.53-20.71C395.37,163.54,351.55,121.38,290.27,86.3Z"/><path class="cls-2" d="M242.73,85.55C100.48,34.51,48.61,37.2,30.8,50.13A19,19,0,0,0,30,51.91c-3.78,9.82-.86,21.61,7.52,34.34a16.06,16.06,0,0,1,.34-10.44C48,51.1,129.86,62.45,221.49,99.09,328,141.67,390.81,200.62,367.14,211.46c13.38-4,21.82-10.83,23.53-20.71a23.65,23.65,0,0,0,.33-3.29C359.93,147.41,313,110.76,242.73,85.55Z"/><path class="cls-14" d="M242.73,85.55C100.48,34.51,48.61,37.2,30.8,50.13A19,19,0,0,0,30,51.91c-3.78,9.82-.86,21.61,7.52,34.34a16.06,16.06,0,0,1,.34-10.44C48,51.1,129.86,62.45,221.49,99.09,328,141.67,390.81,200.62,367.14,211.46c13.38-4,21.82-10.83,23.53-20.71a23.65,23.65,0,0,0,.33-3.29C359.93,147.41,313,110.76,242.73,85.55Z"/><path class="cls-15" d="M361,154.75c-8,1.79-17.14,3.43-27.51,4.86,33.18,24.79,46.89,45.8,33.69,51.85,13.38-4,21.82-10.83,23.53-20.71a23.65,23.65,0,0,0,.33-3.29A269.84,269.84,0,0,0,361,154.75Z"/><path class="cls-16" d="M37.51,86.25c-.1-.36-.17-.72-.25-1.07-.06.13-.12.27-.17.41C37.23,85.81,37.36,86,37.51,86.25Z"/><g class="cls-17"><path class="cls-18" d="M241.2,91.43c48.88,15.24,87,36.32,116.7,60.54-28.79-25.86-66.34-48.9-115.17-66.42C100.48,34.51,48.61,37.2,30.8,50.13A19,19,0,0,0,30,51.91,26,26,0,0,0,28.6,64.5C46.45,51.21,98.64,47,241.2,91.43Z"/><path class="cls-19" d="M367.14,211.46a58.39,58.39,0,0,0,7.29-2.68c4.56-7.57-6.16-22.3-28.72-39.45C369.82,189.75,378.58,206.22,367.14,211.46Z"/></g><ellipse class="cls-20" cx="30.22" cy="66.02" rx="3.37" ry="4.95" transform="translate(-11.84 6.83) rotate(-10.8)"/><ellipse class="cls-20" cx="42.33" cy="55.46" rx="4.5" ry="4.05" transform="translate(-17 92.17) rotate(-84.39)"/><ellipse class="cls-20" cx="380.1" cy="201.4" rx="4.16" ry="2.84" transform="translate(-49.43 178.22) rotate(-24.83)"/><ellipse class="cls-20" cx="377.92" cy="185.88" rx="4.5" ry="4.05" transform="translate(-28.79 295.25) rotate(-41.24)"/><ellipse class="cls-20" cx="65.82" cy="50.99" rx="4.5" ry="4.05" transform="translate(8.64 111.51) rotate(-84.39)"/><ellipse class="cls-20" cx="93.66" cy="52.82" rx="4.5" ry="4.05" transform="translate(31.93 140.87) rotate(-84.39)"/><ellipse class="cls-20" cx="123.83" cy="58.5" rx="4.5" ry="4.05" transform="translate(53.5 176.01) rotate(-84.39)"/><ellipse class="cls-20" cx="158.21" cy="67.3" rx="4.5" ry="4.05" transform="translate(75.77 218.17) rotate(-84.39)"/><circle class="cls-20" cx="193.76" cy="78.02" r="4.5"/><circle class="cls-20" cx="237.38" cy="94.06" r="4.5"/><circle class="cls-20" cx="279.74" cy="113.58" r="4.5"/><circle class="cls-20" cx="312.35" cy="131.25" r="4.5"/><circle class="cls-20" cx="339.5" cy="149.28" r="4.5"/><circle class="cls-20" cx="362.09" cy="167.77" r="4.5"/><path class="cls-2" d="M221.49,99.09C129.86,62.45,48,51.1,37.85,75.81,31.19,92,57,119.15,101.22,146.54,96.6,139.79,95,133.65,97,128.69c7-17.32,55.92-13.8,109.16,7.87s85.55,47.85,78.5,65.17c-2.54,6.24-9.83,10.48-20.62,12.33,47.32,10.23,80.82,6.89,102.8-2.44C391.41,201.17,328.48,141.87,221.49,99.09Z"/><path class="cls-21" d="M221.49,99.09C129.86,62.45,48,51.1,37.85,75.81,31.19,92,57,119.15,101.22,146.54,96.6,139.79,95,133.65,97,128.69c7-17.32,55.92-13.8,109.16,7.87s85.55,47.85,78.5,65.17c-2.54,6.24-9.83,10.48-20.62,12.33,47.32,10.23,80.82,6.89,102.8-2.44C391.41,201.17,328.48,141.87,221.49,99.09Z"/><g class="cls-4"><path class="cls-22" d="M321.21,150.9a10.62,10.62,0,0,1-2.82,1.73c-15.45,6.56-36.6,10.15-64.22,8.16,23.21,14.94,35,29.78,30.47,40.94-2.54,6.24-9.83,10.48-20.62,12.33,47.32,10.23,80.82,6.89,102.8-2.44C382.16,205.1,363.44,179.57,321.21,150.9Z"/></g><ellipse class="cls-23" cx="80.86" cy="118.76" rx="4.51" ry="10.34" transform="translate(-62.78 115.35) rotate(-54.39)"/><ellipse class="cls-24" cx="81.78" cy="85.3" rx="5.92" ry="14.27" transform="translate(-35.19 102.12) rotate(-54.39)"/><ellipse class="cls-25" cx="305.5" cy="205.82" rx="4.51" ry="10.34" transform="translate(71.42 490.25) rotate(-84.51)"/><ellipse class="cls-26" cx="326.8" cy="179.99" rx="5.92" ry="14.27" transform="translate(116.39 488.09) rotate(-84.51)"/><ellipse class="cls-27" cx="173.29" cy="103.5" rx="6.21" ry="17.35" transform="translate(24.56 239.95) rotate(-73.38)"/><ellipse class="cls-28" cx="261.2" cy="136.79" rx="6.48" ry="17.35" transform="translate(23.83 311.7) rotate(-64.03)"/><path class="cls-2" d="M284.64,201.73c-7.05,17.32-50.78,19.22-104-2.45S89.93,146,97,128.69s55.92-13.8,109.16,7.87S291.69,184.41,284.64,201.73Z"/><path class="cls-29" d="M284.64,201.73c-7.05,17.32-50.78,19.22-104-2.45S89.93,146,97,128.69s55.92-13.8,109.16,7.87S291.69,184.41,284.64,201.73Z"/><path class="cls-30" d="M257.48,163a24.35,24.35,0,0,1-3,11.47c-12.34,22.74-59.35,25.94-109.87-1.48-19.22-10.43-35.61-22.78-47.86-35.33,5.07,17.88,38.8,43.32,83.83,61.64,53.24,21.67,97,19.77,104,2.45C289,191.12,278.49,177.17,257.48,163Z"/><path class="cls-8" d="M133.59,152.62c2.83-7.69,29.26-5.06,59,5.88,19.79,7.27,36.07,16.37,43.94,23.93-4.6-8.19-23.64-19.91-48-28.85-29.78-10.93-56.22-13.57-59-5.87-.95,2.58.89,6,4.86,9.81C133.39,155.69,133.08,154,133.59,152.62Z"/><ellipse class="cls-2" cx="188.52" cy="174.3" rx="14.84" ry="57.45" transform="translate(-40.1 291.17) rotate(-69.83)"/><ellipse class="cls-31" cx="188.52" cy="174.3" rx="14.84" ry="57.45" transform="translate(-40.1 291.17) rotate(-69.83)"/><path class="cls-2" d="M238.48,185.19c-8.44,3.09-27.48.54-48.21-7.08-22.75-8.35-40-20-42.28-28-7.37-.09-12.27,1.33-13.4,4.4-2.82,7.69,19,22.8,48.81,33.74s56.22,13.56,59,5.87C243.31,191.73,241.83,188.65,238.48,185.19Z"/><path class="cls-32" d="M238.48,185.19c-8.44,3.09-27.48.54-48.21-7.08-22.75-8.35-40-20-42.28-28-7.37-.09-12.27,1.33-13.4,4.4-2.82,7.69,19,22.8,48.81,33.74s56.22,13.56,59,5.87C243.31,191.73,241.83,188.65,238.48,185.19Z"/><path class="cls-33" d="M188.18,181.21c21.72,8.43,42.06,13.28,54,13.42a5,5,0,0,0,.25-.52c.87-2.38-.61-5.46-4-8.92-8.44,3.09-27.48.54-48.21-7.08-22.75-8.35-40-20-42.28-28-4.22-.06-7.62.39-10,1.35C142.44,159.12,162.28,171.15,188.18,181.21Z"/><path class="cls-34" d="M142,118.78c2.29.29,4.66.64,7.07,1-34.89-30.9-42.28-47.91-43.79-54.5q-2.72-.42-5.36-.76C103.52,84.25,131.45,109.74,142,118.78Z"/><path class="cls-34" d="M319.7,149.89c-11.93,8.9-52.89,10.17-66.39,10.35q2.5,1.59,4.83,3.18c39.11.73,59.63-8.24,65.14-11.1C322.11,151.51,320.91,150.7,319.7,149.89Z"/><path class="cls-35" d="M150.27,150l-138,184.83,174,59.15,51.81-210.18S208.35,156.71,150.27,150Z"/></g></g></svg>