<svg xmlns="http://www.w3.org/2000/svg" xmlns:xlink="http://www.w3.org/1999/xlink" viewBox="0 0 400 400"><defs><style>.cls-1{isolation:isolate;}.cls-2{fill:url(#Degradado_sin_nombre_178);}.cls-3{fill:url(#Degradado_sin_nombre_178-2);}.cls-10,.cls-11,.cls-12,.cls-14,.cls-16,.cls-18,.cls-19,.cls-20,.cls-21,.cls-22,.cls-23,.cls-24,.cls-25,.cls-26,.cls-27,.cls-28,.cls-29,.cls-30,.cls-31,.cls-32,.cls-33,.cls-34,.cls-35,.cls-36,.cls-37,.cls-38,.cls-4,.cls-40,.cls-42,.cls-44,.cls-46,.cls-48,.cls-49,.cls-5,.cls-50,.cls-51,.cls-52,.cls-53,.cls-54,.cls-7,.cls-8,.cls-9{opacity:0.5;}.cls-4{fill:url(#Degradado_sin_nombre_70);}.cls-5{fill:url(#Degradado_sin_nombre_60);}.cls-6{fill:url(#radial-gradient);}.cls-10,.cls-12,.cls-13,.cls-15,.cls-17,.cls-19,.cls-20,.cls-21,.cls-22,.cls-23,.cls-24,.cls-25,.cls-26,.cls-27,.cls-28,.cls-29,.cls-30,.cls-31,.cls-32,.cls-33,.cls-34,.cls-35,.cls-36,.cls-37,.cls-38,.cls-39,.cls-41,.cls-43,.cls-45,.cls-47,.cls-49,.cls-50,.cls-51,.cls-52,.cls-53,.cls-54,.cls-7,.cls-8,.cls-9{mix-blend-mode:multiply;}.cls-7{fill:url(#radial-gradient-2);}.cls-8{fill:url(#radial-gradient-3);}.cls-9{fill:url(#radial-gradient-4);}.cls-10{fill:url(#radial-gradient-5);}.cls-11,.cls-14,.cls-16,.cls-18,.cls-40,.cls-42,.cls-44,.cls-46,.cls-48{mix-blend-mode:screen;}.cls-11{fill:url(#radial-gradient-6);}.cls-13{fill:url(#radial-gradient-7);}.cls-14{fill:url(#radial-gradient-9);}.cls-15{fill:url(#radial-gradient-10);}.cls-16{fill:url(#radial-gradient-12);}.cls-17{fill:url(#radial-gradient-13);}.cls-18{fill:url(#radial-gradient-15);}.cls-19{fill:url(#radial-gradient-16);}.cls-20{fill:url(#radial-gradient-17);}.cls-21{fill:url(#radial-gradient-18);}.cls-22{fill:url(#radial-gradient-19);}.cls-23{fill:url(#radial-gradient-20);}.cls-24{fill:url(#radial-gradient-21);}.cls-25{fill:url(#radial-gradient-22);}.cls-26{fill:url(#radial-gradient-23);}.cls-27{fill:url(#radial-gradient-24);}.cls-28{fill:url(#radial-gradient-25);}.cls-29{fill:url(#radial-gradient-26);}.cls-30{fill:url(#radial-gradient-27);}.cls-31{fill:url(#radial-gradient-28);}.cls-32{fill:url(#radial-gradient-29);}.cls-33{fill:url(#radial-gradient-30);}.cls-34{fill:url(#radial-gradient-31);}.cls-35{fill:url(#radial-gradient-32);}.cls-36{fill:url(#radial-gradient-33);}.cls-37{fill:url(#radial-gradient-34);}.cls-38{fill:url(#radial-gradient-35);}.cls-39{fill:url(#radial-gradient-36);}.cls-40{fill:url(#radial-gradient-38);}.cls-41{fill:url(#radial-gradient-39);}.cls-42{fill:url(#radial-gradient-41);}.cls-43{fill:url(#radial-gradient-42);}.cls-44{fill:url(#radial-gradient-44);}.cls-45{fill:url(#radial-gradient-45);}.cls-46{fill:url(#radial-gradient-47);}.cls-47{fill:url(#radial-gradient-48);}.cls-48{fill:url(#radial-gradient-50);}.cls-49{fill:url(#radial-gradient-51);}.cls-50{fill:url(#radial-gradient-52);}.cls-51{fill:url(#radial-gradient-53);}.cls-52{fill:url(#radial-gradient-54);}.cls-53{fill:url(#radial-gradient-55);}.cls-54{fill:url(#radial-gradient-56);}</style><radialGradient id="Degradado_sin_nombre_178" cx="337.05" cy="196.01" fx="244.9431364543608" fy="280.12485211850344" r="266" gradientTransform="matrix(1.34, -0.01, -0.08, 1.42, -217.21, -71.99)" gradientUnits="userSpaceOnUse"><stop offset="0" stop-color="#cfdfec"/><stop offset="0.22" stop-color="#8cdfec"/><stop offset="0.53" stop-color="#732fa2" stop-opacity="0"/></radialGradient><radialGradient id="Degradado_sin_nombre_178-2" cx="219.75" cy="113.29" fx="219.7460072946269" fy="113.2929190516843" r="430.96" gradientTransform="matrix(1.34, -0.01, -0.04, 0.63, -228.22, 123.18)" xlink:href="#Degradado_sin_nombre_178"/><radialGradient id="Degradado_sin_nombre_70" cx="316.5" cy="156.61" fx="242.13926549477796" fy="184.74917127262626" r="294.16" gradientTransform="matrix(1.1, -0.01, -0.08, 1.46, -180.3, -82.45)" gradientUnits="userSpaceOnUse"><stop offset="0" stop-color="#fff"/><stop offset="0.06" stop-color="#fff" stop-opacity="0.97"/><stop offset="0.15" stop-color="#fff" stop-opacity="0.88"/><stop offset="0.26" stop-color="#fff" stop-opacity="0.74"/><stop offset="0.38" stop-color="#fff" stop-opacity="0.55"/><stop offset="0.52" stop-color="#fff" stop-opacity="0.3"/><stop offset="0.67" stop-color="#fff" stop-opacity="0"/></radialGradient><radialGradient id="Degradado_sin_nombre_60" cx="339.54" cy="161.28" fx="270.8088844159854" r="305.15" gradientTransform="matrix(1.1, -0.01, -0.08, 1.46, -180.3, -82.45)" gradientUnits="userSpaceOnUse"><stop offset="0" stop-color="#fff"/><stop offset="0.11" stop-color="#fff" stop-opacity="0.77"/><stop offset="0.26" stop-color="#fff" stop-opacity="0.5"/><stop offset="0.39" stop-color="#fff" stop-opacity="0.29"/><stop offset="0.5" stop-color="#fff" stop-opacity="0.13"/><stop offset="0.59" stop-color="#fff" stop-opacity="0.03"/><stop offset="0.64" stop-color="#fff" stop-opacity="0"/></radialGradient><radialGradient id="radial-gradient" cx="39.81" cy="116.07" r="97.6" gradientTransform="matrix(0.93, -0.29, 0.32, 0.98, -28.51, 184.54)" gradientUnits="userSpaceOnUse"><stop offset="0" stop-color="#cfdfec"/><stop offset="0.34" stop-color="#8cdfec"/><stop offset="0.94" stop-color="#5e8bea"/></radialGradient><radialGradient id="radial-gradient-2" cx="38.47" cy="111.13" r="84.44" gradientTransform="matrix(0.93, -0.29, 0.32, 0.98, -28.51, 184.54)" gradientUnits="userSpaceOnUse"><stop offset="0" stop-color="#8cdfec"/><stop offset="0.94" stop-color="#5e8bea"/></radialGradient><radialGradient id="radial-gradient-3" cx="34.26" cy="120.16" r="90.59" xlink:href="#radial-gradient-2"/><radialGradient id="radial-gradient-4" cx="91.48" cy="256.98" r="84.73" xlink:href="#radial-gradient-2"/><radialGradient id="radial-gradient-5" cx="109.67" cy="152.93" r="3.17" xlink:href="#radial-gradient-2"/><radialGradient id="radial-gradient-6" cx="38.54" cy="124.39" r="55.9" xlink:href="#radial-gradient-2"/><radialGradient id="radial-gradient-7" cx="10.38" cy="167.58" r="18.93" gradientTransform="matrix(0.95, -0.2, 0.24, 1, -17.84, 167.96)" xlink:href="#radial-gradient-2"/><radialGradient id="radial-gradient-9" cx="11.02" cy="167.83" r="18.31" gradientTransform="matrix(0.95, -0.2, 0.24, 1, -17.84, 167.96)" xlink:href="#radial-gradient-2"/><radialGradient id="radial-gradient-10" cx="-1.31" cy="259.68" r="31.13" gradientTransform="matrix(0.98, 0.06, -0.02, 1.02, 33.86, 33.97)" xlink:href="#radial-gradient-2"/><radialGradient id="radial-gradient-12" cx="-0.27" cy="260.09" r="30.12" gradientTransform="matrix(0.98, 0.06, -0.02, 1.02, 33.86, 33.97)" xlink:href="#radial-gradient-2"/><radialGradient id="radial-gradient-13" cx="109.9" cy="264.98" r="17.64" gradientTransform="matrix(1.19, 0.08, -0.02, 1.02, -71.64, 27.06)" xlink:href="#radial-gradient-2"/><radialGradient id="radial-gradient-15" cx="110.49" cy="265.21" r="17.06" gradientTransform="matrix(1.19, 0.08, -0.02, 1.02, -71.64, 27.06)" xlink:href="#radial-gradient-2"/><radialGradient id="radial-gradient-16" cx="90.95" cy="126.52" r="4.44" xlink:href="#radial-gradient-2"/><radialGradient id="radial-gradient-17" cx="89.94" cy="138.18" r="2.86" xlink:href="#radial-gradient-2"/><radialGradient id="radial-gradient-18" cx="15.73" cy="180.84" r="5.08" xlink:href="#radial-gradient-2"/><radialGradient id="radial-gradient-19" cx="19.38" cy="164" r="3.81" xlink:href="#radial-gradient-2"/><radialGradient id="radial-gradient-20" cx="42.72" cy="189.84" r="14.6" xlink:href="#radial-gradient-2"/><radialGradient id="radial-gradient-21" cx="52.48" cy="183.59" r="5.4" xlink:href="#radial-gradient-2"/><radialGradient id="radial-gradient-22" cx="53.35" cy="193.53" r="4.13" xlink:href="#radial-gradient-2"/><radialGradient id="radial-gradient-23" cx="3.96" cy="181.25" r="4.13" xlink:href="#radial-gradient-2"/><radialGradient id="radial-gradient-24" cx="20.65" cy="150.97" r="3.17" xlink:href="#radial-gradient-2"/><radialGradient id="radial-gradient-25" cx="60.13" cy="114.71" r="13.01" xlink:href="#radial-gradient-2"/><radialGradient id="radial-gradient-26" cx="87.4" cy="114" r="4.13" xlink:href="#radial-gradient-2"/><radialGradient id="radial-gradient-27" cx="82.27" cy="138.62" r="5.71" xlink:href="#radial-gradient-2"/><radialGradient id="radial-gradient-28" cx="81.86" cy="150.15" r="5.08" xlink:href="#radial-gradient-2"/><radialGradient id="radial-gradient-29" cx="58.58" cy="171.44" r="4.44" xlink:href="#radial-gradient-2"/><radialGradient id="radial-gradient-30" cx="83.62" cy="170.84" r="4.76" xlink:href="#radial-gradient-2"/><radialGradient id="radial-gradient-31" cx="83.49" cy="179.02" r="4.13" xlink:href="#radial-gradient-2"/><radialGradient id="radial-gradient-32" cx="83.05" cy="196.31" r="8.25" xlink:href="#radial-gradient-2"/><radialGradient id="radial-gradient-33" cx="91.13" cy="199.62" r="2.54" xlink:href="#radial-gradient-2"/><radialGradient id="radial-gradient-34" cx="100.7" cy="188.5" r="2.22" xlink:href="#radial-gradient-2"/><radialGradient id="radial-gradient-35" cx="102.93" cy="127.94" r="2.22" xlink:href="#radial-gradient-2"/><radialGradient id="radial-gradient-36" cx="931.97" cy="280.4" r="23.63" gradientTransform="matrix(-0.97, 0.06, -0.1, -1.02, 1052.9, 559.79)" xlink:href="#radial-gradient-2"/><radialGradient id="radial-gradient-38" cx="932.76" cy="280.71" r="22.86" gradientTransform="matrix(-0.97, 0.06, -0.1, -1.02, 1052.9, 559.79)" xlink:href="#radial-gradient-2"/><radialGradient id="radial-gradient-39" cx="902.33" cy="62.48" r="11.82" gradientTransform="matrix(-0.92, -0.39, 0.33, -0.95, 921.8, 760.26)" xlink:href="#radial-gradient-2"/><radialGradient id="radial-gradient-41" cx="902.73" cy="62.64" r="11.43" gradientTransform="matrix(-0.92, -0.39, 0.33, -0.95, 921.8, 760.26)" xlink:href="#radial-gradient-2"/><radialGradient id="radial-gradient-42" cx="610.15" cy="720.51" r="26.75" gradientTransform="matrix(-0.24, 0.98, -0.95, -0.29, 918.81, -106.09)" xlink:href="#radial-gradient-2"/><radialGradient id="radial-gradient-44" cx="611.05" cy="720.86" r="25.87" gradientTransform="matrix(-0.24, 0.98, -0.95, -0.29, 918.81, -106.09)" xlink:href="#radial-gradient-2"/><radialGradient id="radial-gradient-45" cx="984.01" cy="441.99" r="16.53" gradientTransform="matrix(-0.93, 0.29, -0.32, -0.98, 1087.65, 456.85)" xlink:href="#radial-gradient-2"/><radialGradient id="radial-gradient-47" cx="984.56" cy="442.21" r="15.99" gradientTransform="matrix(-0.93, 0.29, -0.32, -0.98, 1087.65, 456.85)" xlink:href="#radial-gradient-2"/><radialGradient id="radial-gradient-48" cx="475.43" cy="787.22" r="13.83" gradientTransform="matrix(0.06, 1.02, -0.98, 0.02, 792.53, -222)" xlink:href="#radial-gradient-2"/><radialGradient id="radial-gradient-50" cx="475.89" cy="787.4" r="13.38" gradientTransform="matrix(0.06, 1.02, -0.98, 0.02, 792.53, -222)" xlink:href="#radial-gradient-2"/><radialGradient id="radial-gradient-51" cx="38.8" cy="113.89" r="8.89" xlink:href="#radial-gradient-2"/><radialGradient id="radial-gradient-52" cx="57.22" cy="96.13" r="8.89" xlink:href="#radial-gradient-2"/><radialGradient id="radial-gradient-53" cx="29.99" cy="133.86" r="3.81" xlink:href="#radial-gradient-2"/><radialGradient id="radial-gradient-54" cx="29.78" cy="104.04" r="4.44" xlink:href="#radial-gradient-2"/><radialGradient id="radial-gradient-55" cx="17.86" cy="115.53" r="3.17" xlink:href="#radial-gradient-2"/><radialGradient id="radial-gradient-56" cx="48.94" cy="134.8" r="5.08" xlink:href="#radial-gradient-2"/></defs><title>FINAL ELEMENTOS</title><g class="cls-1"><g id="Capa_1" data-name="Capa 1"><path class="cls-2" d="M394.17,74.64c.94-2.74-.21-5.71-2.36-6.11h0c-9.22-1.73-18.28-2.26-26.71-7.47-3.36-2.08-5-7.36-3.2-12.25C367.29,34,382.14,30.26,391.57,21.7c-.41-.14-.79-.26-1.09-.33a64.17,64.17,0,0,0-18-1.21c-17.63.94-34.78,8.75-52.07,14.33-19.8,6.4-54.92,14.15-90.67,39.74C226,76.87,117.4,167.06,68.59,214.68,7,274.81-13.94,329.26,22.31,365.51c33.16,33.16,70.9,32.1,106.86-11.05,36.84-44.22,44.21-84.75,210-243.18C339.56,110.92,391.21,83.31,394.17,74.64Z"/><path class="cls-3" d="M390.5,74.6c.93-2.72-.2-5.66-2.33-6.06h0c-9.22-1.73-18.29-2.26-26.71-7.47-3.36-2.08-5-7.36-3.2-12.25a28.05,28.05,0,0,1,5.41-9.08c2.9-3.29.76-9.11-2.82-7.65C265.26,70.93,161.28,177.17,66,265.07c-24.58,22.69-32.12,60.7-18.41,79.19s38.95,14.75,57.72-4.72c85.87-89.87,186.4-221.71,280.61-256a4.3,4.3,0,0,0,2.41-2.67C389,78.82,389.77,76.71,390.5,74.6Z"/><path class="cls-4" d="M357.07,63.14c-3.36-2.08-5-7.36-3.2-12.25,5.39-14.79,20.24-18.56,29.67-27.11-.41-.14-.79-.27-1.09-.34a64.2,64.2,0,0,0-18-1.21c-17.63.95-34.78,8.75-52.07,14.34-9.52,3.07-19.23,5.14-28.9,7.51C210.28,96.11,134.85,174.77,64,240.16a80.59,80.59,0,0,0-17.78,24.42c-4.66,22-3.16,42.87,3.87,59.85,14.48,12.39,36.3,7.78,53.24-9.82C184.11,230,278.15,108.82,367.27,67.46A38.74,38.74,0,0,1,357.07,63.14Z"/><path class="cls-5" d="M380.1,99.73C389,101,369.84,66.27,361.42,61.06a7,7,0,0,1-2-1.88,2.76,2.76,0,0,0-3.35-1.08C260.87,97.45,157.36,203.33,62.71,291.57c-19.1,17.8-28.11,45.51-24.09,65.06a4.28,4.28,0,0,0,1,2.06c12.15,13.12,27.59,19.05,43.5,20.39a2.89,2.89,0,0,0,1.43-.26,58.81,58.81,0,0,0,17.77-13.1C184.21,279.13,331.82,92.85,380.1,99.73Z"/><path class="cls-6" d="M133.93,311.63c-4.76,35.46-17.71,58.94-49,68.62s-60.18-4.44-70.8-37.51.37-70.66,31.64-80.34S138.56,277.21,133.93,311.63Z"/><path class="cls-7" d="M19.33,348.72c-10.62-33.07,6.13-67.72,37.4-77.4,21.63-6.69,53.16.91,68.75,16.82C107.06,266,70,254.92,45.79,262.4c-31.27,9.68-42.26,47.27-31.64,80.34a66.09,66.09,0,0,0,15.71,26.12A66.4,66.4,0,0,1,19.33,348.72Z"/><path class="cls-8" d="M106.18,357.33C74.91,367,41,348.05,30.34,315c-4-12.4-6.75-29.77-3.71-41.22-16.13,15.52-20.17,45-12.48,69,10.62,33.07,39.53,47.19,70.8,37.51,19.54-6.05,33.16-14.74,44.22-44.22C123,342,114.8,354.66,106.18,357.33Z"/><path class="cls-9" d="M92.32,266c3.2,4.8,10.41,14.43,12.27,20.22,10.17,31.69-5.87,64.9-35.84,74.17C50.59,366,31.52,361.54,17,350.11,30,378.55,55.64,387.58,85,380.25c29.48-7.37,44.22-33.16,49-68.62C136.26,294.29,121.8,277.08,92.32,266Z"/><path class="cls-10" d="M122.75,304.69a1.38,1.38,0,0,1-.86,1.77,1.41,1.41,0,0,1-1.73-1,1.39,1.39,0,0,1,.85-1.77A1.43,1.43,0,0,1,122.75,304.69Z"/><path class="cls-11" d="M95.16,304.43c6.19,19.26-3.56,39.45-21.78,45.09s-38-5.41-44.19-24.67,3.57-39.46,21.79-45.1S89,285.16,95.16,304.43Z"/><g class="cls-12"><path class="cls-13" d="M36.73,344.43c1.1,4.69-.14,8.94-2.77,9.5s-5.65-2.78-6.75-7.47.13-8.95,2.76-9.51S35.63,339.74,36.73,344.43Z"/><path class="cls-13" d="M36.73,344.43c1.1,4.69-.14,8.94-2.77,9.5s-5.65-2.78-6.75-7.47.13-8.95,2.76-9.51S35.63,339.74,36.73,344.43Z"/><path class="cls-14" d="M31,336.92c-1.8,1.41-2.54,5-1.61,8.92,1,4.11,3.4,7.18,5.76,7.51,1.8-1.41,2.53-5,1.61-8.92C35.77,340.32,33.33,337.24,31,336.92Z"/></g><g class="cls-12"><path class="cls-15" d="M31.49,317.93c-.15,7.85-3.89,14-8.34,13.69s-7.94-6.89-7.79-14.74,3.89-14,8.34-13.69S31.65,310.08,31.49,317.93Z"/><path class="cls-15" d="M31.49,317.93c-.15,7.85-3.89,14-8.34,13.69s-7.94-6.89-7.79-14.74,3.89-14,8.34-13.69S31.65,310.08,31.49,317.93Z"/><path class="cls-16" d="M25.31,303.58c-3.47,1.4-6.11,6.71-6.24,13.28-.14,6.88,2.52,12.8,6.18,14.35,3.47-1.4,6.12-6.71,6.24-13.28C31.63,311.05,29,305.13,25.31,303.58Z"/></g><g class="cls-12"><path class="cls-17" d="M57,316.88c-.09,4.45-2.65,7.89-5.72,7.69s-5.49-4-5.4-8.42,2.64-7.89,5.71-7.69S57,312.43,57,316.88Z"/><path class="cls-17" d="M57,316.88c-.09,4.45-2.65,7.89-5.72,7.69s-5.49-4-5.4-8.42,2.64-7.89,5.71-7.69S57,312.43,57,316.88Z"/><path class="cls-18" d="M52.65,308.7c-2.38.77-4.2,3.75-4.27,7.47-.07,3.9,1.77,7.28,4.3,8.19,2.38-.77,4.2-3.76,4.27-7.48C57,313,55.18,309.61,52.65,308.7Z"/></g><path class="cls-19" d="M97.57,284.79a1.94,1.94,0,0,1-1.2,2.48,2,2,0,0,1-2.43-1.36,1.94,1.94,0,0,1,1.2-2.48A2,2,0,0,1,97.57,284.79Z"/><path class="cls-20" d="M99.66,295.73a1.24,1.24,0,0,1-.77,1.59,1.27,1.27,0,0,1-1.56-.87,1.23,1.23,0,0,1,.77-1.59A1.27,1.27,0,0,1,99.66,295.73Z"/><path class="cls-21" d="M45.14,360a2.22,2.22,0,0,1-1.37,2.83A2.27,2.27,0,0,1,41,361.31a2.21,2.21,0,0,1,1.37-2.83A2.27,2.27,0,0,1,45.14,360Z"/><path class="cls-22" d="M42.7,341.81a1.64,1.64,0,0,1-1,2.12,1.69,1.69,0,0,1-2.08-1.16,1.64,1.64,0,0,1,1-2.12A1.69,1.69,0,0,1,42.7,341.81Z"/><path class="cls-23" d="M76.9,365.85A6.35,6.35,0,0,1,73,374a6.51,6.51,0,0,1-8-4.45,6.36,6.36,0,0,1,3.93-8.15A6.53,6.53,0,0,1,76.9,365.85Z"/><path class="cls-24" d="M80.24,352.32a2.35,2.35,0,0,1-1.45,3,2.4,2.4,0,0,1-3-1.65,2.36,2.36,0,0,1,1.45-3A2.41,2.41,0,0,1,80.24,352.32Z"/><path class="cls-25" d="M83.66,361.2a1.79,1.79,0,0,1-1.11,2.3,1.83,1.83,0,0,1-2.25-1.26,1.79,1.79,0,0,1,1.11-2.3A1.83,1.83,0,0,1,83.66,361.2Z"/><path class="cls-26" d="M34,363.34a1.8,1.8,0,0,1-1.12,2.3,1.84,1.84,0,0,1-2.25-1.26,1.78,1.78,0,0,1,1.11-2.3A1.84,1.84,0,0,1,34,363.34Z"/><path class="cls-27" d="M39.52,328.35a1.39,1.39,0,0,1-.86,1.77,1.42,1.42,0,0,1-1.73-1,1.38,1.38,0,0,1,.85-1.77A1.42,1.42,0,0,1,39.52,328.35Z"/><path class="cls-28" d="M68.74,286.33a5.67,5.67,0,0,1-3.51,7.26,5.81,5.81,0,0,1-7.11-4,5.66,5.66,0,0,1,3.51-7.26A5.82,5.82,0,0,1,68.74,286.33Z"/><path class="cls-29" d="M90.2,273.37a1.79,1.79,0,0,1-1.11,2.3,1.85,1.85,0,0,1-2.26-1.26,1.81,1.81,0,0,1,1.11-2.3A1.85,1.85,0,0,1,90.2,273.37Z"/><path class="cls-30" d="M93.84,299.79A2.49,2.49,0,0,1,92.3,303a2.56,2.56,0,0,1-3.12-1.75,2.47,2.47,0,0,1,1.54-3.18A2.55,2.55,0,0,1,93.84,299.79Z"/><path class="cls-31" d="M96.84,310.9a2.22,2.22,0,0,1-1.37,2.84,2.27,2.27,0,0,1-2.77-1.55,2.22,2.22,0,0,1,1.37-2.84A2.27,2.27,0,0,1,96.84,310.9Z"/><path class="cls-32" d="M81.68,338.18a1.93,1.93,0,0,1-1.2,2.47,2,2,0,0,1-2.42-1.35,1.93,1.93,0,0,1,1.19-2.48A2,2,0,0,1,81.68,338.18Z"/><path class="cls-33" d="M104.86,330.55a2.07,2.07,0,0,1-1.29,2.66,2.13,2.13,0,0,1-2.6-1.46,2.07,2.07,0,0,1,1.29-2.65A2.13,2.13,0,0,1,104.86,330.55Z"/><path class="cls-34" d="M107.06,338.3a1.79,1.79,0,0,1-1.11,2.3,1.84,1.84,0,0,1-2.26-1.26,1.81,1.81,0,0,1,1.11-2.3A1.85,1.85,0,0,1,107.06,338.3Z"/><path class="cls-35" d="M113.78,357.45a3.6,3.6,0,0,1-2.23,4.6,3.68,3.68,0,0,1-4.51-2.52,3.59,3.59,0,0,1,2.23-4.6A3.68,3.68,0,0,1,113.78,357.45Z"/><path class="cls-36" d="M120,355.52a1.1,1.1,0,0,1-.68,1.42,1.13,1.13,0,0,1-1.39-.78,1.1,1.1,0,0,1,.68-1.41A1.13,1.13,0,0,1,120,355.52Z"/><path class="cls-37" d="M125.24,341.71a1,1,0,0,1-.6,1.24,1,1,0,0,1-1.22-.68A1,1,0,0,1,124,341,1,1,0,0,1,125.24,341.71Z"/><path class="cls-38" d="M108.23,281.64a1,1,0,0,1-.6,1.24,1,1,0,0,1-1.21-.68A1,1,0,0,1,107,281,1,1,0,0,1,108.23,281.64Z"/><g class="cls-12"><path class="cls-39" d="M111.45,316.52c-.58-6,1.67-11,5-11.18s6.57,4.45,7.16,10.41-1.67,11-5,11.18S112,322.48,111.45,316.52Z"/><path class="cls-39" d="M111.45,316.52c-.58-6,1.67-11,5-11.18s6.57,4.45,7.16,10.41-1.67,11-5,11.18S112,322.48,111.45,316.52Z"/><path class="cls-40" d="M117.36,326.79c2.48-1.4,4-5.68,3.5-10.67-.51-5.22-3-9.44-5.91-10.27-2.48,1.4-4,5.68-3.5,10.67C112,321.74,114.48,326,117.36,326.79Z"/></g><g class="cls-12"><path class="cls-41" d="M111.48,344.05c1-2.76,3-4.46,4.64-3.79s2.09,3.45,1.12,6.22-3,4.46-4.64,3.79S110.5,346.82,111.48,344.05Z"/><path class="cls-41" d="M111.48,344.05c1-2.76,3-4.46,4.64-3.79s2.09,3.45,1.12,6.22-3,4.46-4.64,3.79S110.5,346.82,111.48,344.05Z"/><path class="cls-42" d="M112.06,349.93c1.43-.06,3-1.61,3.83-3.92s.57-4.86-.59-5.87c-1.43.06-3,1.6-3.82,3.91S110.91,348.91,112.06,349.93Z"/></g><g class="cls-12"><path class="cls-43" d="M72,280.79c-6.28-1.93-10.62-6.6-9.68-10.42s6.78-5.37,13.06-3.44,10.62,6.59,9.69,10.42S78.28,282.72,72,280.79Z"/><path class="cls-43" d="M72,280.79c-6.28-1.93-10.62-6.6-9.68-10.42s6.78-5.37,13.06-3.44,10.62,6.59,9.69,10.42S78.28,282.72,72,280.79Z"/><path class="cls-44" d="M84.5,278.67c-.59-3.36-4.43-6.88-9.69-8.5-5.5-1.69-10.67-.71-12.5,2.13.59,3.35,4.43,6.88,9.69,8.49C77.5,282.48,82.67,281.51,84.5,278.67Z"/></g><g class="cls-12"><path class="cls-45" d="M29.6,299.74c-1.3-4-.54-7.82,1.7-8.51s5.1,2,6.4,6,.54,7.82-1.7,8.52S30.89,303.75,29.6,299.74Z"/><path class="cls-45" d="M29.6,299.74c-1.3-4-.54-7.82,1.7-8.51s5.1,2,6.4,6,.54,7.82-1.7,8.52S30.89,303.75,29.6,299.74Z"/><path class="cls-46" d="M35.14,305.84c1.46-1.38,1.83-4.57.74-7.92-1.13-3.51-3.47-6-5.54-6.09-1.45,1.37-1.83,4.56-.74,7.91C30.73,303.25,33.07,305.74,35.14,305.84Z"/></g><g class="cls-12"><path class="cls-47" d="M41.35,278.59C38,278.64,35.2,277,35.09,275s2.5-3.79,5.85-3.84,6.15,1.58,6.26,3.64S44.7,278.54,41.35,278.59Z"/><path class="cls-47" d="M41.35,278.59C38,278.64,35.2,277,35.09,275s2.5-3.79,5.85-3.84,6.15,1.58,6.26,3.64S44.7,278.54,41.35,278.59Z"/><path class="cls-48" d="M47.12,275.5c-.78-1.58-3.18-2.72-6-2.68s-5.3,1.38-5.77,3.09c.79,1.58,3.18,2.72,6,2.68S46.66,277.22,47.12,275.5Z"/></g><path class="cls-49" d="M47,289.6a3.86,3.86,0,0,1-2.4,4.95,4,4,0,0,1-4.85-2.71,3.86,3.86,0,0,1,2.39-4.95A4,4,0,0,1,47,289.6Z"/><path class="cls-50" d="M58.51,266.88a3.87,3.87,0,0,1-2.4,4.95,4,4,0,0,1-4.86-2.71,3.87,3.87,0,0,1,2.4-5A4,4,0,0,1,58.51,266.88Z"/><path class="cls-51" d="M43.05,309.19a1.65,1.65,0,0,1-1,2.12,1.69,1.69,0,0,1-2.08-1.16A1.65,1.65,0,0,1,41,308,1.69,1.69,0,0,1,43.05,309.19Z"/><path class="cls-52" d="M33.72,280.31a1.93,1.93,0,0,1-1.19,2.48,2,2,0,0,1-2.43-1.36A1.93,1.93,0,0,1,31.29,279,2,2,0,0,1,33.72,280.31Z"/><path class="cls-53" d="M25.76,294.37a1.38,1.38,0,0,1-.85,1.77,1.43,1.43,0,0,1-1.74-1A1.38,1.38,0,0,1,24,293.4,1.41,1.41,0,0,1,25.76,294.37Z"/><path class="cls-54" d="M61.45,305.3a2.22,2.22,0,0,1-1.37,2.83,2.26,2.26,0,0,1-2.78-1.55,2.21,2.21,0,0,1,1.37-2.83A2.27,2.27,0,0,1,61.45,305.3Z"/></g></g></svg>